<?xml version="1.0" standalone="no"?>
<!DOCTYPE svg PUBLIC "-//W3C//DTD SVG 1.1//EN" "http://www.w3.org/Graphics/SVG/1.1/DTD/svg11.dtd" >
<svg xmlns="http://www.w3.org/2000/svg">
<metadata></metadata>
<defs>
<font id="patronmedium" horiz-adv-x="1189" >
<font-face units-per-em="2048" ascent="1575" descent="-473" />
<missing-glyph horiz-adv-x="551" />
<glyph unicode="&#xfb01;" horiz-adv-x="1279" d="M76 961v118q0 13 9 22.5t22 9.5h158v162q0 91 24 152t74.5 95.5t117 48.5t162.5 14q122 0 258 -14t186 -28q20 -5 20 -37v-196q0 -13 -10.5 -21.5t-25.5 -7.5h-96q-15 -1 -25.5 7.5t-10.5 21.5v83q-5 0 -52 2.5t-116.5 5.5t-127.5 3q-45 0 -71.5 -3.5t-52.5 -15.5 t-38 -39t-12 -71v-162h607q13 0 22 -9.5t9 -22.5v-1047q0 -13 -9 -22.5t-22 -9.5h-142q-13 0 -22 9.5t-9 22.5v897h-434v-897q0 -13 -9 -22.5t-22 -9.5h-142q-13 0 -22 9.5t-9 22.5v897h-158q-13 0 -22 9.5t-9 22.5z" />
<glyph unicode="&#xfb02;" horiz-adv-x="1354" d="M76 961v118q0 13 9 22.5t22 9.5h158v162q0 91 24 152t74.5 95.5t117 48.5t162.5 14q86 0 192.5 -8t172 -16.5t76.5 -11.5q23 -4 23 -33v-1057q0 -46 0.5 -70.5t2 -57.5t4.5 -49.5t8.5 -37.5t14.5 -30.5t21.5 -18.5t29 -11.5t38.5 -0.5q13 0 22 -9t9 -22l8 -118 q0 -13 -9 -22.5t-22 -9.5q-17 -2 -49 -2q-71 0 -120 16.5t-81 48t-49.5 87t-24.5 122.5t-7 166v958q-116 6 -260 6q-45 0 -71.5 -3.5t-52.5 -15.5t-38 -39t-12 -71v-162h167q13 0 22.5 -9.5t9.5 -22.5v-118q0 -13 -9.5 -22.5t-22.5 -9.5h-167v-897q0 -13 -9 -22.5t-22 -9.5 h-142q-13 0 -22 9.5t-9 22.5v897h-158q-13 0 -22 9.5t-9 22.5z" />
<glyph unicode="&#xfb03;" horiz-adv-x="1917" d="M76 961v118q0 13 9 22.5t22 9.5h158v162q0 91 24 152t74.5 95.5t117 48.5t162.5 14q121 0 240.5 -16.5t149.5 -27.5q84 44 248 44q122 0 259.5 -14t186.5 -28q20 -5 20 -37v-196q0 -13 -10.5 -21.5t-25.5 -7.5h-98q-15 -1 -25.5 7.5t-10.5 21.5v83q-4 0 -51 2.5t-117 5.5 t-128 3q-44 0 -70.5 -3.5t-53 -15.5t-38.5 -39.5t-12 -70.5v-162h609q13 0 22 -9.5t9 -22.5v-1047q0 -13 -9 -22.5t-22 -9.5h-142q-13 0 -22.5 9.5t-9.5 22.5v897h-435v-897q0 -13 -9 -22.5t-22 -9.5h-142q-13 0 -22 9.5t-9 22.5v897h-434v-897q0 -13 -9 -22.5t-22 -9.5 h-142q-13 0 -22 9.5t-9 22.5v897h-158q-13 0 -22 9.5t-9 22.5zM469 1111h434v162q0 68 19 112q-115 17 -279 17q-45 0 -71.5 -3.5t-52.5 -15.5t-38 -39t-12 -71v-162z" />
<glyph unicode="&#xfb04;" horiz-adv-x="1977" d="M76 961v118q0 13 9 22.5t22 9.5h158v162q0 91 24.5 152t75.5 95.5t119.5 48.5t166.5 14q113 0 227 -18t149 -31q88 49 277 49q86 0 183 -7.5t152 -15.5t67 -11q24 -4 24 -35v-1057q0 -62 0.5 -91.5t4 -69.5t10.5 -56.5t20 -34t33.5 -22t49.5 -2.5q13 0 22 -9t9 -22 l8 -118q0 -13 -9 -22.5t-22 -9.5q-17 -2 -49 -2q-71 0 -120 16.5t-81 48t-49.5 87t-24.5 122.5t-7 166v958q-56 6 -221 6q-55 0 -85.5 -3.5t-59 -16t-40.5 -39t-12 -70.5v-162h167q13 0 22.5 -9.5t9.5 -22.5v-118q0 -13 -9.5 -22.5t-22.5 -9.5h-168v-897q0 -13 -9.5 -22.5 t-22.5 -9.5h-140q-13 0 -22 9.5t-9 22.5v897h-435v-897q0 -13 -9.5 -22.5t-22.5 -9.5h-140q-13 0 -22 9.5t-9 22.5v897h-158q-13 0 -22 9.5t-9 22.5zM469 1196l182 -85l252 77v109q-41 65 -101 97q-17 2 -63 2q-124 0 -151 -27q-50 0 -84.5 -52.5t-34.5 -120.5z" />
<glyph horiz-adv-x="2048" />
<glyph horiz-adv-x="2048" />
<glyph unicode="&#xd;" horiz-adv-x="2048" />
<glyph unicode=" "  horiz-adv-x="551" />
<glyph unicode="&#x09;" horiz-adv-x="551" />
<glyph unicode="&#xa0;" horiz-adv-x="551" />
<glyph unicode="!" horiz-adv-x="500" d="M129 50v139q0 21 15.5 36.5t36.5 15.5h139q21 0 35.5 -15.5t14.5 -36.5v-139q0 -21 -14.5 -35.5t-35.5 -14.5h-139q-21 0 -36.5 14.5t-15.5 35.5zM140 1386q0 13 9.5 22.5t22.5 9.5h157q13 0 22.5 -9.5t9.5 -22.5l-24 -904q0 -13 -9 -22t-22 -9h-111q-13 0 -22 9t-9 22z " />
<glyph unicode="&#x22;" horiz-adv-x="830" d="M126 1270l2 453q0 41 31 41h137q34 0 29 -41l-59 -456q-4 -29 -30 -29h-78q-13 0 -22.5 9.5t-9.5 22.5zM504 1270l2 453q0 41 31 41h137q34 0 29 -41l-59 -456q-4 -29 -30 -29h-78q-13 0 -22.5 9.5t-9.5 22.5z" />
<glyph unicode="#" horiz-adv-x="1584" d="M126 406v125q0 13 9.5 22t22.5 9h195l113 282h-230q-13 0 -22 9.5t-9 22.5v124q0 13 9 22.5t22 9.5h304l148 367q4 13 16 18.5t24 0.5l123 -21q12 -4 17 -16.5t0 -24.5l-131 -324h367l148 367q4 13 16 18.5t24 0.5l123 -21q12 -4 17 -16.5t0 -24.5l-131 -324h126 q13 0 22.5 -9.5t9.5 -22.5v-124q0 -13 -9.5 -22.5t-22.5 -9.5h-200l-113 -282h235q13 0 22 -9t9 -22v-125q0 -13 -9 -22t-22 -9h-309l-144 -358q-4 -12 -15.5 -17t-23.5 0l-123 20q-12 4 -17 16.5t0 24.5l124 314h-365l-144 -358q-5 -12 -16 -17.5t-23 0.5l-123 20 q-12 4 -17 16.5t0 24.5l124 314h-119q-13 0 -22.5 9t-9.5 22zM550 562h367l113 282h-367z" />
<glyph unicode="$" horiz-adv-x="1183" d="M126 1010q0 94 25 160.5t73.5 105t109 57.5t143.5 25v186q0 13 9.5 22t22.5 9h142q13 0 22 -9t9 -22v-186q121 -8 235 -25q13 -2 20 -12.5t5 -23.5l-16 -125q-1 -12 -12.5 -19.5t-23.5 -5.5q-158 28 -320 28q-74 0 -120.5 -11.5t-78 -49t-32.5 -104.5q-4 -88 56 -132 t210 -60q243 -26 347.5 -126.5t104.5 -283.5q0 -93 -24.5 -158t-74.5 -104.5t-116 -60t-160 -27.5v-184q0 -13 -9 -22.5t-22 -9.5h-142q-13 0 -22.5 9.5t-9.5 22.5v183q-142 5 -274 30q-13 2 -20 12.5t-5 23.5l14 123q1 12 12.5 19.5t23.5 5.5q158 -28 322 -28 q154 0 223 33.5t71 131.5q2 91 -55.5 142t-191.5 69q-259 28 -365 117.5t-106 273.5z" />
<glyph unicode="%" horiz-adv-x="1594" d="M126 1068q0 98 12 161t44 109.5t90 67t149 20.5q73 0 124 -14t84 -40.5t52 -71.5t26 -99.5t7 -132.5q0 -98 -11.5 -160.5t-43.5 -109t-89.5 -66.5t-148.5 -20t-149 20t-90 66.5t-44 109t-12 160.5zM307 1068q0 -105 23 -148t91 -43q66 0 88.5 43.5t22.5 147.5t-23 148 t-88 44q-68 0 -91 -43.5t-23 -148.5zM338 48.5q-4 12.5 2 23.5l745 1341q6 12 18.5 16t24.5 -3l120 -27q11 -6 14.5 -19t-3.5 -24l-745 -1339q-13 -28 -41 -14l-120 27q-11 6 -15 18.5zM881 348q0 78 7 132.5t26 99.5t52 71.5t84.5 40.5t124.5 14t124 -14t84 -40.5t52 -71.5 t26 -99.5t7 -132.5q0 -98 -11.5 -160.5t-43.5 -109t-89.5 -66.5t-148.5 -20t-149 20t-90 66.5t-43.5 109t-11.5 160.5zM1062 348q0 -104 23 -147t90 -43t89.5 43t22.5 147q0 106 -22.5 149t-89.5 43t-90 -43t-23 -149z" />
<glyph unicode="&#x26;" horiz-adv-x="1328" d="M99 375q0 295 210 348q-186 54 -186 318q0 96 23.5 166.5t63 112.5t102.5 67t129.5 33.5t157.5 8.5q153 0 310 -33q25 -4 25 -36l-12 -123q-1 -10 -11 -18t-21 -8h-5q-15 2 -54 9t-63.5 10.5t-62.5 7t-73 3.5q-56 0 -97 -4.5t-81 -17t-65 -34.5t-40 -58.5t-15 -86.5 q0 -49 9 -84t31.5 -59.5t52 -39t80.5 -23t105.5 -11t137.5 -2.5h139v142q0 13 9 22t22 9h142q13 0 22 -9t9 -22v-142h107q13 0 22.5 -9.5t9.5 -22.5v-127q0 -13 -9.5 -22.5t-22.5 -9.5h-107v-74q0 -143 10 -208t38 -107q13 -21 57.5 -52.5t44.5 -46.5q0 -8 -3 -13l-55 -118 q-11 -16 -27 -16q-9 0 -14 3q-56 21 -99 57t-73 103q-49 -92 -143.5 -130.5t-266.5 -38.5q-115 0 -196 17t-143.5 59.5t-93 119t-30.5 190.5zM310 373q0 -200 281 -200q7 0 19 1t19 1q78 3 124.5 19t79 58t44.5 113t12 188v77h-150q-102 0 -169.5 -6.5t-120.5 -22.5 t-81.5 -45.5t-43 -73.5t-14.5 -109z" />
<glyph unicode="'" horiz-adv-x="452" d="M126 1270l2 453q0 41 31 41h137q34 0 29 -41l-59 -456q-4 -29 -30 -29h-78q-13 0 -22.5 9.5t-9.5 22.5z" />
<glyph unicode="(" horiz-adv-x="797" d="M113 551q0 651 402 1028q24 20 49 3l96 -52q12 -8 12.5 -22t-9.5 -24q-340 -340 -340 -933q0 -582 340 -915q10 -10 9.5 -24.5t-12.5 -21.5l-96 -53q-26 -18 -49 5q-210 196 -306 444.5t-96 564.5z" />
<glyph unicode=")" horiz-adv-x="797" d="M128 -389q0 14 11 25q340 333 340 915q0 590 -340 933q-11 10 -11 24t12 22l96 52q26 18 51 -3q400 -375 400 -1028q0 -317 -95 -565t-305 -444q-24 -24 -51 -5l-96 53q-12 7 -12 21z" />
<glyph unicode="*" horiz-adv-x="1046" d="M95 1084.5q-5 11.5 0 24.5l40 125q4 13 15 18.5t22 -0.5l266 -122q26 -11 17 -38l-19 -59q-4 -11 -14.5 -16t-22.5 -1l-287 55q-12 2 -17 13.5zM204 751q-2 13 7 21l199 214q21 21 41 5l50 -36q10 -7 11 -19t-6 -22l-142 -255q-4 -10 -16.5 -12t-24.5 5l-106 79 q-11 7 -13 20zM427 1438q-1 12 8 21t22 9h132q13 0 22 -9t7 -21l-35 -290q-3 -29 -30 -29h-61q-12 0 -20 9t-10 22zM537 915q-14 24 8 41l50 35q10 8 21 5.5t20 -13.5l199 -213q8 -8 6.5 -20.5t-12.5 -20.5l-107 -77q-10 -7 -23.5 -5t-17.5 13zM591 1093q-4 12 1.5 22 t17.5 15l264 122q11 6 21.5 0.5t15.5 -18.5l39 -127q5 -12 -1 -23.5t-18 -12.5l-285 -56q-31 -5 -38 20z" />
<glyph unicode="+" horiz-adv-x="1116" d="M126 636v133q0 13 9.5 22t22.5 9h294v300q0 13 9.5 22t22.5 9h149q13 0 22.5 -9t9.5 -22v-300h294q13 0 22.5 -9t9.5 -22v-133q0 -13 -9.5 -22t-22.5 -9h-294v-299q0 -13 -9.5 -22.5t-22.5 -9.5h-149q-13 0 -22.5 9.5t-9.5 22.5v299h-294q-13 0 -22.5 9t-9.5 22z" />
<glyph unicode="," horiz-adv-x="548" d="M128 -268l78 446q2 13 11 22.5t21 9.5h157q19 0 24.5 -13.5t-0.5 -27.5l-148 -437q-10 -31 -32 -31h-80q-13 0 -23 9.5t-8 21.5z" />
<glyph unicode="-" horiz-adv-x="786" d="M126 506v118q0 13 9.5 22t22.5 9h471q13 0 22 -9t9 -22v-118q0 -13 -9 -22.5t-22 -9.5h-471q-13 0 -22.5 9.5t-9.5 22.5z" />
<glyph unicode="." horiz-adv-x="554" d="M156 50v139q0 21 15.5 36.5t36.5 15.5h139q21 0 35.5 -15.5t14.5 -36.5v-139q0 -21 -14.5 -35.5t-35.5 -14.5h-139q-21 0 -36.5 14.5t-15.5 35.5z" />
<glyph unicode="/" horiz-adv-x="1085" d="M129 -2l648 1620q4 13 15.5 18.5t23.5 0.5l123 -21q12 -4 17 -16.5t0 -24.5l-647 -1621q-4 -12 -16 -17t-24 0l-122 20q-12 4 -17.5 16.5t-0.5 24.5z" />
<glyph unicode="0" horiz-adv-x="1291" d="M173 703q0 169 14.5 287.5t46 206.5t87.5 138.5t134.5 74.5t190.5 24t190.5 -24t134.5 -74.5t87.5 -138.5t46 -206.5t14.5 -287.5t-14.5 -286.5t-46 -203.5t-87.5 -135t-134.5 -71.5t-190.5 -22.5t-190.5 22.5t-134.5 71.5t-87.5 135t-46 203.5t-14.5 286.5zM386 703 q0 -101 3 -133l487 490q-24 102 -78.5 144t-151.5 42q-104 0 -158.5 -47.5t-78 -162t-23.5 -333.5zM413 351q25 -101 79 -140t154 -39q63 0 105 14.5t73 48.5t47.5 96.5t24.5 151t8 220.5q0 93 -4 137z" />
<glyph unicode="1" horiz-adv-x="1053" d="M142.5 1130q1.5 14 11.5 20l380 258q16 11 41 11q74 0 77 -3q21 -6 21 -27v-1202h231q13 0 22.5 -9t9.5 -22v-124q0 -13 -9.5 -22.5t-22.5 -9.5h-676q-13 0 -22 9.5t-9 22.5v124q0 13 9 22t22 9h232l-2 944l-193 -135q-10 -7 -25 -6t-21 12l-72 105q-6 9 -4.5 23z" />
<glyph unicode="2" horiz-adv-x="1140" d="M142 32v154q0 25 12 39l481 506q120 124 120 279q0 114 -60 172.5t-164 58.5q-132 0 -312 -28q-12 -2 -23.5 5.5t-12.5 19.5l-16 122q-2 13 5 23.5t20 12.5q165 30 370 30q189 0 297 -102t108 -314t-178 -394l-412 -429h575q13 0 22 -9t9 -22v-124q0 -13 -9 -22.5 t-22 -9.5h-779q-13 0 -22 9.5t-9 22.5z" />
<glyph unicode="3" horiz-adv-x="1132" d="M112 60l12 123q1 12 13 19.5t24 5.5q158 -28 299 -28q81 0 132 7t92 28t59.5 60.5t18.5 101.5q0 45 -2 73.5t-9 58.5t-19.5 47t-35.5 34.5t-54 26t-77.5 15.5t-104.5 9.5t-137 2.5q-13 0 -22.5 9.5t-9.5 22.5v124q0 13 9.5 22.5t22.5 9.5h108t87 2.5t71 4.5t53 8.5 t41.5 13t27.5 19.5t19.5 26.5t10 35.5t6 44t0.5 55q0 61 -17.5 101.5t-52 60.5t-74 27.5t-96.5 7.5q-141 0 -299 -28q-12 -2 -23.5 5.5t-12.5 19.5l-13 125q-2 13 5 23.5t20 12.5q187 30 371 30q76 0 132.5 -8.5t110 -33.5t87 -67t54 -111.5t20.5 -164.5q0 -126 -38.5 -205 t-135.5 -108q55 -13 93 -45.5t58.5 -80.5t29.5 -102.5t9 -122.5q0 -69 -10.5 -123.5t-30 -95t-51 -69.5t-68 -47.5t-86.5 -30t-102.5 -15.5t-119.5 -4q-191 0 -370 32q-13 2 -20 12.5t-5 23.5z" />
<glyph unicode="4" horiz-adv-x="1252" d="M110 326v125q0 31 14 53l626 893q14 21 47 21h150q13 0 22 -9.5t9 -22.5v-904h125q13 0 22 -9t9 -22v-125q0 -13 -9 -22t-22 -9h-125v-263q0 -13 -9 -22.5t-22 -9.5h-150q-13 0 -22 9.5t-9 22.5v263h-624q-13 0 -22.5 9t-9.5 22zM334 482h432v616z" />
<glyph unicode="5" horiz-adv-x="1172" d="M159 60l16 126q1 12 12.5 19.5t23.5 5.5q157 -31 312 -31q144 0 211.5 59.5t67.5 200.5t-67.5 200t-211.5 59h-273q-13 0 -22 9.5t-9 22.5v655q0 13 9 22.5t22 9.5h662q13 0 22.5 -9.5t9.5 -22.5v-124q0 -13 -9.5 -22.5t-22.5 -9.5h-496v-343h107q124 0 212.5 -22.5 t153 -73.5t95.5 -138t31 -213t-31 -213t-95.5 -138.5t-153 -74t-212.5 -22.5q-160 0 -339 32q-13 2 -20 12.5t-5 23.5z" />
<glyph unicode="6" horiz-adv-x="1211" d="M158 473q0 153 43 299t124 273.5t205.5 231t279.5 164.5q13 6 26 1.5t18 -15.5l50 -105q5 -13 0.5 -25t-14.5 -16q-159 -65 -279 -179.5t-173 -238.5q32 29 85.5 44t103.5 15q122 0 207 -33t132 -97t67.5 -145t20.5 -190q0 -92 -12 -160.5t-42.5 -128t-82 -97 t-132.5 -58.5t-191 -21t-188.5 23t-126 61.5t-75 102t-37 131.5t-9.5 163zM370 460q0 -58 4 -96t17 -76t37 -59t65.5 -34.5t100.5 -13.5q53 0 88.5 4t65 16t46 30.5t28 50.5t15.5 73.5t4 101.5q0 72 -10 119t-36 84.5t-75.5 55t-125.5 17.5q-128 0 -176 -64t-48 -209z" />
<glyph unicode="7" horiz-adv-x="1099" d="M134 1262v124q0 13 9 22.5t22 9.5h785q13 0 22 -9.5t9 -22.5v-93q0 -26 -12 -52l-556 -1228q-17 -33 -54 -16l-123 47q-31 14 -15 49l527 1137h-583q-13 0 -22 9.5t-9 22.5z" />
<glyph unicode="8" horiz-adv-x="1282" d="M165 392q0 139 50 220.5t168 123.5q-100 42 -140.5 118.5t-40.5 202.5q0 94 22.5 161.5t59 107t95.5 62.5t120 30.5t145 7.5q69 0 122 -5.5t106 -19t90.5 -40t67.5 -66.5t44.5 -100t14.5 -138q0 -125 -41 -202t-141 -119q118 -42 168 -123.5t50 -220.5q0 -100 -23 -172 t-62.5 -116t-103 -69t-131.5 -34t-161 -9t-161 9t-131 34t-102 69t-62 116t-23 172zM373 392q0 -69 18.5 -114t56.5 -67.5t83.5 -30.5t112.5 -8q54 0 92 4.5t74 18.5t57.5 38t34.5 63.5t13 95.5q0 126 -63 182.5t-208 71.5q-144 -15 -207.5 -71.5t-63.5 -182.5zM410 1057 q0 -114 53 -169t181 -74q128 19 181.5 74t53.5 169q0 60 -17 99t-51.5 58t-72 25t-94.5 6q-44 0 -75.5 -3.5t-63.5 -15t-51.5 -32t-31.5 -55t-12 -82.5z" />
<glyph unicode="9" horiz-adv-x="1211" d="M158 961q0 92 12 160.5t42.5 128t82 97t132.5 58.5t191 21t188.5 -23t126 -61.5t75 -102t37 -131.5t9.5 -163q0 -205 -73.5 -393t-223 -341.5t-355.5 -234.5q-13 -6 -26 -1t-18 16l-52 105q-5 13 -0.5 25t14.5 16q159 65 280 179.5t172 238.5q-31 -29 -85 -44t-103 -15 q-122 0 -207 33t-132 97t-67 145t-20 190zM370 961q0 -71 10 -119t36.5 -85t76 -54.5t125.5 -17.5q127 0 175 64t48 209q0 58 -3.5 96t-16.5 76t-37 59t-65.5 34.5t-100.5 13.5q-64 0 -104 -6.5t-70.5 -23t-45 -49t-21.5 -78.5t-7 -119z" />
<glyph unicode=":" horiz-adv-x="493" d="M126 50v139q0 21 15.5 36.5t36.5 15.5h139q21 0 35.5 -15.5t14.5 -36.5v-139q0 -21 -14.5 -35.5t-35.5 -14.5h-139q-21 0 -36.5 14.5t-15.5 35.5zM126 920v139q0 21 15.5 36.5t36.5 15.5h139q21 0 35.5 -15.5t14.5 -36.5v-139q0 -21 -14.5 -35.5t-35.5 -14.5h-139 q-21 0 -36.5 14.5t-15.5 35.5z" />
<glyph unicode=";" horiz-adv-x="568" d="M128 -268l78 446q2 13 11 22.5t21 9.5h157q19 0 24.5 -13.5t-0.5 -27.5l-148 -437q-10 -31 -32 -31h-80q-13 0 -23 9.5t-8 21.5zM202 920v139q0 21 15.5 36.5t36.5 15.5h138q21 0 36 -15.5t15 -36.5v-139q0 -21 -15 -35.5t-36 -14.5h-138q-21 0 -36.5 14.5t-15.5 35.5z " />
<glyph unicode="&#x3c;" horiz-adv-x="1055" d="M126 679v54q0 21 22 33l678 381q27 13 42 -14l57 -117q6 -12 2 -24t-16 -18l-489 -268l489 -268q12 -7 16 -19t-2 -24l-59 -118q-14 -27 -40 -14l-678 381q-22 16 -22 35z" />
<glyph unicode="=" horiz-adv-x="1038" d="M126 476v124q0 13 9.5 22.5t22.5 9.5h723q13 0 22 -9.5t9 -22.5v-124q0 -13 -9 -22.5t-22 -9.5h-723q-13 0 -22.5 9.5t-9.5 22.5zM126 803v125q0 13 9.5 22t22.5 9h723q13 0 22 -9t9 -22v-125q0 -13 -9 -22t-22 -9h-723q-13 0 -22.5 9t-9.5 22z" />
<glyph unicode="&#x3e;" horiz-adv-x="1055" d="M34 419q4 12 16 19l489 268l-489 268q-12 6 -16 18t2 24l57 117q15 27 42 14l678 -381q22 -12 22 -33v-54q0 -19 -22 -35l-678 -381q-26 -13 -40 14l-59 118q-6 12 -2 24z" />
<glyph unicode="?" horiz-adv-x="1038" d="M128 1360q-5 27 25 36q128 26 315 30q82 1 144.5 -8t121 -36.5t96 -73.5t60 -122.5t22.5 -180.5q0 -213 -90 -312t-312 -131v-140q0 -13 -9 -22t-22 -9h-143q-13 0 -22.5 9t-9.5 22v301q0 13 9.5 22.5t22.5 9.5q75 0 127 5t99.5 20.5t75.5 43t44.5 72.5t16.5 109 q0 70 -16.5 116.5t-50 70.5t-71.5 34t-93 12q-128 4 -284 -27q-11 -2 -22.5 6t-13.5 20zM287 50v137q0 21 15.5 36t36.5 15h135q21 0 36.5 -15t15.5 -36v-137q0 -21 -15.5 -35.5t-36.5 -14.5h-135q-21 0 -36.5 14.5t-15.5 35.5z" />
<glyph unicode="@" horiz-adv-x="1721" d="M126 295v249q0 103 7 176t26.5 139.5t54 109t89 74.5t131.5 46t182 14h243q101 0 171 -14t121.5 -49t76 -96t24.5 -152v-304q0 -66 -0.5 -97.5t-2.5 -84t-7.5 -76.5t-14.5 -62.5t-23.5 -55.5t-35.5 -42.5t-49.5 -35.5t-65.5 -22t-84.5 -16t-105.5 -4q-103 0 -171.5 14.5 t-121 51.5t-77 104.5t-24.5 169.5q0 100 24.5 166.5t76.5 104t122 53t171 15.5q130 0 185 -33v175q0 31 -16.5 53.5t-45 34t-59 16.5t-65.5 5h-246q-65 0 -110.5 -7.5t-78 -28t-51 -46t-29 -72.5t-13.5 -96.5t-3 -127.5v-249q0 -70 1.5 -118t7 -95.5t14 -77.5t23.5 -58 t35.5 -44t50 -28t66 -16.5t85.5 -4.5h493q55 0 94 6t70.5 18.5t51.5 37t34 55.5t21 81t10 106t3 138v244q0 165 -24 400q-2 13 6 23.5t21 11.5l142 6q13 0 23.5 -7.5t11.5 -19.5q25 -219 25 -409v-249q0 -119 -7 -202.5t-27 -158t-54 -120.5t-89 -79.5t-131.5 -48 t-181.5 -14.5h-490q-105 0 -181.5 14.5t-131.5 48t-89 79.5t-54 120.5t-27 158t-7 202.5zM676 332q0 -45 8 -74.5t20.5 -46.5t38.5 -25.5t50.5 -10.5t68.5 -2q135 2 160.5 41.5t25.5 214.5q0 33 -57 47t-128 14q-53 0 -84 -5t-56.5 -21t-36 -47.5t-10.5 -84.5z" />
<glyph unicode="A" horiz-adv-x="1296" d="M66 68l463 1328q8 22 35 22h169q26 0 34 -22l463 -1324q2 -5 2 -9q0 -7 -4 -14q-6 -11 -17 -16l-144 -46q-7 -3 -13 -3q-18 0 -28 22l-108 317h-551l-107 -318q-4 -11 -16 -17q-7 -3 -14 -4q-5 0 -11 2l-134 42q-11 4 -17 16q-4 7 -4 14q0 5 2 10zM430 510h424l-211 634z " />
<glyph unicode="B" horiz-adv-x="1285" d="M189 32v1354q0 13 9.5 22.5t22.5 9.5h439q82 0 143.5 -9.5t117.5 -35.5t91.5 -70t56 -115t20.5 -169q0 -93 -31.5 -167t-82.5 -113q82 -32 129.5 -116.5t47.5 -212.5q0 -99 -20.5 -172t-56 -118t-91 -72.5t-117.5 -37.5t-144 -10h-502q-13 0 -22.5 9.5t-9.5 22.5z M400 181h322q110 0 162.5 48t52.5 181q0 132 -51.5 175.5t-209.5 43.5h-276v-448zM402 810h258q63 0 101 7.5t65.5 30.5t38.5 64t11 109q0 67 -14 110.5t-44.5 66t-66.5 31t-91 8.5h-258v-427z" />
<glyph unicode="C" horiz-adv-x="1200" d="M170 707q0 148 9.5 254t33 190t59.5 136t94 85.5t132 45.5q64 11 148 11h28q200 -5 339 -27q13 -2 20 -12q5 -8 5 -18v-6l-14 -123q-1 -12 -12.5 -19.5t-23.5 -5.5q-124 18 -314 23h-20q-60 -1 -100 -11q-47 -12 -82.5 -44t-53.5 -95t-26.5 -153.5t-8.5 -230.5 q0 -117 5 -197.5t19 -141.5t34 -96.5t54.5 -57t75.5 -28.5q36 -6 88 -6h15q194 5 314 25q12 2 23.5 -5.5t12.5 -19.5l14 -125v-6q0 -9 -5 -17q-7 -10 -20 -13q-139 -22 -339 -27h-27q-85 0 -149 11q-74 13 -131.5 46.5t-94 86t-60 135.5t-33 187.5t-9.5 248.5z" />
<glyph unicode="D" horiz-adv-x="1351" d="M189 32v1354q0 13 9.5 22.5t22.5 9.5h425q110 0 190 -14.5t141 -49.5t99.5 -87.5t62.5 -135t33.5 -184.5t9.5 -244q0 -137 -10.5 -238.5t-36 -182t-65 -132.5t-100.5 -86.5t-139.5 -49t-184.5 -14.5h-425q-13 0 -22.5 9.5t-9.5 22.5zM402 187h266q73 0 122 15t85.5 48 t56 94.5t28.5 147t9 211.5q0 131 -9 219t-28.5 150.5t-56 95.5t-85 47.5t-122.5 14.5h-266v-1043z" />
<glyph unicode="E" horiz-adv-x="1140" d="M189 32v1354q0 13 9.5 22.5t22.5 9.5h754q13 0 22.5 -9.5t9.5 -22.5v-124q0 -13 -9.5 -22.5t-22.5 -9.5h-573v-408h447q13 0 22.5 -9t9.5 -22v-125q0 -13 -9.5 -22t-22.5 -9h-447v-455h573q13 0 22.5 -9.5t9.5 -22.5v-116q0 -13 -9.5 -22.5t-22.5 -9.5h-754 q-13 0 -22.5 9.5t-9.5 22.5z" />
<glyph unicode="F" horiz-adv-x="1127" d="M189 32v1354q0 13 9.5 22.5t22.5 9.5h754q13 0 22.5 -9.5t9.5 -22.5v-124q0 -13 -9.5 -22.5t-22.5 -9.5h-573v-408h447q13 0 22.5 -9t9.5 -22v-125q0 -13 -9.5 -22t-22.5 -9h-447v-603q0 -13 -9.5 -22.5t-22.5 -9.5h-149q-13 0 -22.5 9.5t-9.5 22.5z" />
<glyph unicode="G" horiz-adv-x="1298" d="M170 706q0 148 9.5 254.5t33 190.5t59.5 136t94 85.5t132 46.5q63 11 149 11h27q211 -5 355 -28q13 -2 20 -12.5t5 -23.5l-14 -125q-1 -12 -12.5 -19.5t-23.5 -5.5q-142 24 -330 27q-73 0 -120 -13.5t-82.5 -46t-53.5 -96t-26.5 -153.5t-8.5 -228q0 -113 5 -192 t19 -139.5t34 -96.5t54.5 -59t76 -31t102.5 -8q188 0 238 7v394h-197q-13 0 -22 9.5t-9 22.5v126q0 13 9 22t22 9h378q13 0 22.5 -9t9.5 -22v-679q0 -26 -32 -32q-176 -33 -419 -36h-19q-109 0 -187 22q-85 23 -143.5 72t-92 136.5t-48 202.5t-14.5 281z" />
<glyph unicode="H" horiz-adv-x="1342" d="M189 32v1354q0 13 9.5 22.5t22.5 9.5h149q13 0 22.5 -9.5t9.5 -22.5v-564h539v564q0 13 9 22.5t22 9.5h150q13 0 22 -9.5t9 -22.5v-1354q0 -13 -9 -22.5t-22 -9.5h-150q-13 0 -22 9.5t-9 22.5v603h-539v-603q0 -13 -9.5 -22.5t-22.5 -9.5h-149q-13 0 -22.5 9.5t-9.5 22.5 z" />
<glyph unicode="I" horiz-adv-x="880" d="M134 32v124q0 13 9 22t22 9h169v1043h-169q-13 0 -22 9.5t-9 22.5v124q0 13 9 22.5t22 9.5h550q13 0 22.5 -9.5t9.5 -22.5v-124q0 -13 -9.5 -22.5t-22.5 -9.5h-168v-1043h168q13 0 22.5 -9t9.5 -22v-124q0 -13 -9.5 -22.5t-22.5 -9.5h-550q-13 0 -22 9.5t-9 22.5z" />
<glyph unicode="J" horiz-adv-x="874" d="M83 35l16 118q2 14 13.5 23t26.5 7q71 -5 145 -5q51 0 82 4.5t61 19.5t43.5 48.5t13.5 86.5v893h-311q-13 0 -22 9.5t-9 22.5v124q0 13 9 22.5t22 9.5h492q13 0 22 -9.5t9 -22.5v-1049q0 -102 -26.5 -170.5t-82 -107t-128 -54.5t-175.5 -16q-55 0 -97.5 2t-58.5 4l-15 2 q-33 8 -30 38z" />
<glyph unicode="K" horiz-adv-x="1225" d="M189 32v1354q0 13 9.5 22.5t22.5 9.5h149q13 0 22.5 -9.5t9.5 -22.5v-608l572 654q8 10 18 10q11 0 26 -12l115 -96q8 -7 7 -20t-9 -24l-537 -602q41 -43 291.5 -278.5t289.5 -275.5q11 -11 11 -22t-11 -22l-115 -110q-11 -10 -22 -10q-13 0 -25 13l-611 594v-545 q0 -13 -9.5 -22.5t-22.5 -9.5h-149q-13 0 -22.5 9.5t-9.5 22.5z" />
<glyph unicode="L" horiz-adv-x="1126" d="M189 32v1354q0 13 9.5 22.5t22.5 9.5h149q13 0 22.5 -9.5t9.5 -22.5v-1199h590q13 0 22.5 -9t9.5 -22v-124q0 -13 -9.5 -22.5t-22.5 -9.5h-771q-13 0 -22.5 9.5t-9.5 22.5z" />
<glyph unicode="M" horiz-adv-x="1491" d="M189 32v1354q0 13 9.5 22.5t22.5 9.5h162q30 0 38 -17l324 -557l326 557q8 17 38 17h162q13 0 22.5 -9.5t9.5 -22.5v-1354q0 -13 -9.5 -22.5t-22.5 -9.5h-149q-13 0 -22.5 9.5t-9.5 22.5v1061l-261 -479q-17 -31 -41 -31h-84q-26 0 -41 31l-261 479v-1061 q0 -13 -9.5 -22.5t-22.5 -9.5h-149q-13 0 -22.5 9.5t-9.5 22.5z" />
<glyph unicode="N" horiz-adv-x="1370" d="M189 32v1354q0 13 9.5 22.5t22.5 9.5h185q28 0 38 -17l525 -1032v1017q0 13 9 22.5t22 9.5h150q13 0 22.5 -9.5t9.5 -22.5v-1354q0 -13 -9.5 -22.5t-22.5 -9.5h-186q-30 0 -38 17l-524 1032v-1017q0 -13 -9.5 -22.5t-22.5 -9.5h-149q-13 0 -22.5 9.5t-9.5 22.5z" />
<glyph unicode="O" horiz-adv-x="1384" d="M170 703q0 143 9.5 246t32.5 187.5t61 138.5t97 91t137.5 52.5t185.5 15.5t185.5 -15.5t137.5 -52.5t96.5 -91t61 -138.5t32.5 -187.5t9 -246t-9 -245t-32.5 -185.5t-61 -136t-97 -88t-137 -50t-185.5 -14.5q-129 0 -217 23t-149 71t-94.5 135.5t-48 203t-14.5 286.5z M384 703q0 -133 8.5 -220.5t28 -151t56.5 -97t88 -48t128 -14.5t128 15t87.5 48t55.5 96.5t27.5 150.5t8.5 221t-8.5 222t-27.5 153.5t-55.5 100.5t-87.5 51t-128 16t-128 -16t-88 -51t-56.5 -100.5t-28 -154t-8.5 -221.5z" />
<glyph unicode="P" horiz-adv-x="1228" d="M189 32v1354q0 13 9.5 22.5t22.5 9.5h441q107 0 182.5 -21.5t132 -72.5t83.5 -139.5t27 -218.5t-27 -217.5t-83.5 -137.5t-131.5 -70.5t-183 -20.5h-260v-488q0 -13 -9.5 -22.5t-22.5 -9.5h-149q-13 0 -22.5 9.5t-9.5 22.5zM402 707h260q119 0 165.5 55.5t46.5 203.5 q0 149 -47 206.5t-165 57.5h-260v-523z" />
<glyph unicode="Q" horiz-adv-x="1384" d="M170 703q0 143 9.5 246t32.5 187.5t61 138.5t97 91t137.5 52.5t185.5 15.5t185.5 -15.5t137.5 -52.5t96.5 -91t61 -138.5t32.5 -187.5t9 -246q0 -148 -10.5 -253.5t-35 -189.5t-67.5 -136.5t-105 -84.5t-151 -44q35 -51 101.5 -71t166.5 -20h31q13 0 22.5 -9.5t9.5 -22.5 v-134q0 -13 -9.5 -22t-22.5 -9h-31q-194 0 -311.5 65t-161.5 214q-96 3 -166.5 20.5t-124 54.5t-87.5 90t-55 135t-29.5 181t-8.5 236zM384 703q0 -133 8.5 -220.5t28 -151t56.5 -97t88 -48t128 -14.5t128 15t87.5 48t55.5 96.5t27.5 150.5t8.5 221t-8.5 222t-27.5 153.5 t-55.5 100.5t-87.5 51t-128 16t-128 -16t-88 -51t-56.5 -100.5t-28 -154t-8.5 -221.5z" />
<glyph unicode="R" horiz-adv-x="1257" d="M189 32v1354q0 13 9.5 22.5t22.5 9.5h441q107 0 182.5 -21.5t132 -72.5t83.5 -139.5t27 -218.5q0 -198 -63 -298.5t-187 -128.5l307 -454q6 -9 6 -20v-7q-2 -15 -17 -19l-136 -52q-7 -4 -17 -4q-4 1 -8 1q-16 2 -22 14l-334 522h-214v-488q0 -13 -9.5 -22.5t-22.5 -9.5 h-149q-13 0 -22.5 9.5t-9.5 22.5zM402 707h260q119 0 165.5 55.5t46.5 203.5q0 149 -47 206.5t-165 57.5h-260v-523z" />
<glyph unicode="S" horiz-adv-x="1216" d="M137 1027q0 110 32 187t96.5 123.5t150.5 69t206 27.5q11 1 63 1q136 0 276 -28q13 -2 20 -12.5t5 -23.5l-14 -125q-1 -12 -12.5 -19.5t-23.5 -5.5q-148 27 -257 27q-8 0 -27.5 -1t-29.5 -1q-133 -5 -204 -53t-71 -163q0 -104 71.5 -154t203.5 -63q120 -13 204 -39 t146.5 -73t92.5 -122.5t30 -181.5q0 -113 -32 -192.5t-96.5 -126.5t-150.5 -69t-206 -25q-10 0 -30 -0.5t-29 -0.5q-200 0 -349 41q-13 2 -19.5 12.5t-4.5 23.5l17 123q2 12 14 18.5t24 4.5q174 -36 320 -36q41 0 61 2q133 5 202 52.5t69 166.5q0 109 -66.5 159.5 t-196.5 63.5q-121 12 -207 37.5t-150.5 73t-96 122.5t-31.5 180z" />
<glyph unicode="T" horiz-adv-x="1195" d="M95 1262v124q0 13 9 22.5t22 9.5h944q13 0 22 -9.5t9 -22.5v-124q0 -13 -9 -22.5t-22 -9.5h-366v-1198q0 -13 -9 -22.5t-22 -9.5h-150q-13 0 -22 9.5t-9 22.5v1198h-366q-13 0 -22 9.5t-9 22.5z" />
<glyph unicode="U" horiz-adv-x="1376" d="M173 659v727q0 13 9.5 22.5t22.5 9.5h149q13 0 22.5 -9.5t9.5 -22.5v-727q0 -93 4 -156.5t16 -121t32.5 -92.5t54.5 -61.5t81.5 -37t113.5 -10.5q79 0 132.5 17.5t87.5 50t52 94t24.5 133.5t6.5 184v727q0 13 9 22.5t22 9.5h150q13 0 22.5 -9.5t9.5 -22.5v-727 q0 -122 -8.5 -211.5t-30 -167.5t-58.5 -129.5t-94 -88.5t-137 -53.5t-188 -16.5t-187.5 16.5t-137 53.5t-94.5 88.5t-58 130t-29.5 167t-8.5 211.5z" />
<glyph unicode="V" horiz-adv-x="1346" d="M99 1347q-2 6 -2 12q0 7 3 14q6 13 18 15l151 41q4 1 8 1q23 0 32 -22l370 -1096l370 1096q9 22 32 22q4 0 8 -1l137 -41q12 -2 18 -15q3 -7 3 -14q0 -6 -2 -12l-454 -1320q-9 -27 -41 -27h-155q-31 0 -39 27z" />
<glyph unicode="W" horiz-adv-x="1791" d="M91 1356q-1 5 -1 9q0 8 4 17q7 13 19 14l153 34q6 1 10 1q24 0 30 -21l285 -1038l208 695q8 26 41 26h115q33 0 41 -26l206 -692l285 1035q6 21 30 21q5 0 10 -1l148 -34q12 -1 19 -14q4 -8 4 -17q0 -5 -1 -9l-385 -1334q-8 -22 -36 -22h-145q-31 0 -36 22l-197 706 l-199 -706q-8 -22 -36 -22h-148q-28 0 -36 22z" />
<glyph unicode="X" horiz-adv-x="1242" d="M124 107l375 607l-365 594q-15 26 14 45l123 73q12 5 21 5q17 0 25 -16l297 -515l300 515q6 12 20 15q4 1 8 1q9 0 16 -5l131 -70q11 -6 15.5 -20t-3.5 -27l-362 -589l378 -608q6 -10 6 -18q0 -15 -19 -26l-123 -76q-8 -4 -17 -4h-6q-14 2 -22 14l-312 532l-314 -532 q-6 -11 -20 -14q-4 -1 -8 -1q-9 0 -16 5l-129 71q-18 11 -18 26q0 9 5 18z" />
<glyph unicode="Y" horiz-adv-x="1257" d="M96 1320q-4 8 -4 15q0 14 17 25l143 67q7 3 14 3q6 0 11 -2q12 -5 18 -18l343 -668l337 668q9 20 27 20q8 0 16 -3l130 -61q18 -11 18 -25q0 -7 -5 -16l-422 -826v-467q0 -13 -9.5 -22.5t-22.5 -9.5h-149q-13 0 -22.5 9.5t-9.5 22.5v464z" />
<glyph unicode="Z" horiz-adv-x="1179" d="M150 32v148q0 32 11 48l636 1002h-616q-13 0 -22 9.5t-9 22.5v124q0 13 9 22.5t22 9.5h818q13 0 22 -9.5t9 -22.5v-148q0 -24 -11 -42l-628 -1009h608q13 0 22 -9t9 -22v-124q0 -13 -9 -22.5t-22 -9.5h-818q-13 0 -22 9.5t-9 22.5z" />
<glyph unicode="[" horiz-adv-x="636" d="M126 -425v1969q0 13 9.5 22t22.5 9h321q13 0 22 -9t9 -22v-109q0 -13 -9 -22t-22 -9h-140v-1689h140q13 0 22 -9.5t9 -22.5v-108q0 -13 -9 -22.5t-22 -9.5h-321q-13 0 -22.5 9.5t-9.5 22.5z" />
<glyph unicode="\" horiz-adv-x="1085" d="M129 1575q-5 12 0.5 24.5t17.5 16.5l122 21q12 5 24 -0.5t16 -18.5l647 -1620q5 -12 0 -24.5t-17 -16.5l-123 -20q-12 -5 -23.5 0t-15.5 17z" />
<glyph unicode="]" horiz-adv-x="636" d="M126 -317q0 13 9.5 22.5t22.5 9.5h140v1689h-140q-13 0 -22.5 9t-9.5 22v109q0 13 9.5 22t22.5 9h321q13 0 22 -9t9 -22v-1969q0 -13 -9 -22.5t-22 -9.5h-321q-13 0 -22.5 9.5t-9.5 22.5v108z" />
<glyph unicode="^" horiz-adv-x="1145" d="M129 808.5q-4 11.5 2 23.5l381 677q11 21 32 21q2 2 28 2t28 -2q21 0 32 -21l383 -677q13 -27 -15 -41l-118 -58q-12 -6 -24 -2t-18 16l-268 488l-268 -488q-6 -12 -18 -16t-24 2l-117 58q-12 6 -16 17.5z" />
<glyph unicode="_" horiz-adv-x="1101" d="M126 -147q0 13 9.5 22.5t22.5 9.5h786q13 0 22 -9.5t9 -22.5v-124q0 -13 -9 -22t-22 -9h-786q-13 0 -22.5 9t-9.5 22v124z" />
<glyph unicode="`" horiz-adv-x="630" d="M119 1430.5q-1 11.5 9 22.5l88 100q21 23 44 0l241 -245q23 -21 3 -46l-41 -51q-17 -21 -46 -1l-286 200q-11 9 -12 20.5z" />
<glyph unicode="a" horiz-adv-x="1205" d="M134 343q0 194 96 272t290 78q187 0 255 -68v101q0 125 -55.5 168t-180.5 43q-101 0 -259 -22q-13 -1 -22.5 6.5t-11.5 20.5l-14 118q-4 27 26 35q123 24 293 24q230 0 329.5 -79t99.5 -263v-224q0 -172 19 -211q11 -108 112 -159q21 -10 21 -27q0 -7 -4 -16l-54 -123 q-15 -26 -41 -12q-57 23 -99 60t-72 100q-86 -173 -334 -173q-101 0 -171 16t-122 55.5t-76.5 108t-24.5 171.5zM331 343q0 -58 14 -94.5t44.5 -53t61.5 -21.5t83 -5q114 2 173.5 55.5t59.5 183.5q0 64 -59 86.5t-174 22.5q-51 0 -82.5 -5.5t-62 -22t-44.5 -53t-14 -93.5z " />
<glyph unicode="b" horiz-adv-x="1194" d="M165 558v986q0 13 9.5 22t22.5 9h142q13 0 22 -9t9 -22v-531q86 109 262 109q147 0 235.5 -53t132.5 -177t44 -334q0 -120 -13 -207.5t-43.5 -158t-81.5 -113t-127 -65t-180 -22.5q-106 0 -181 22t-124.5 63t-78 112t-39.5 158t-11 211zM370 561q0 -93 5 -152.5 t18.5 -108.5t39.5 -74.5t66 -39t100 -13.5q144 0 192.5 81t48.5 304q0 77 -3 129t-12.5 98t-25.5 73t-42 47t-62.5 28t-87.5 8q-138 0 -187.5 -80t-49.5 -300z" />
<glyph unicode="c" horiz-adv-x="1012" d="M150 558q0 147 22 249.5t73.5 174.5t138.5 106t215 34q178 0 275 -19q13 -2 20.5 -12t6.5 -23l-12 -118q-1 -13 -11.5 -21t-23.5 -6q-131 18 -255 18q-76 0 -123.5 -20t-74.5 -69t-37 -117t-10 -177t10 -177.5t37 -117.5t74.5 -69.5t123.5 -20.5q95 0 255 18 q13 2 23.5 -6t11.5 -21l12 -118q1 -13 -6.5 -23t-20.5 -12q-114 -19 -275 -19q-128 0 -215 34t-138.5 106.5t-73.5 175t-22 250.5z" />
<glyph unicode="d" horiz-adv-x="1272" d="M150 558q0 211 44 335t132.5 176.5t235.5 52.5q176 0 262 -109v531q0 13 9 22t22 9h142q13 0 22.5 -9t9.5 -22v-986q0 -135 8 -198.5t31 -107.5q27 -52 90 -79q12 -5 18 -17q3 -6 2 -12q0 -6 -3 -13l-55 -120q-13 -23 -41 -13q-56 23 -99 59t-73 102q-48 -91 -125 -129 t-194 -38q-130 0 -215 32.5t-134.5 105t-69 174t-19.5 254.5zM354 558q0 -228 48 -306.5t193 -78.5q90 0 138 31.5t69 108.5t22 223v23q0 107 -8 175q-10 74 -37.5 122.5t-72.5 66.5t-118 18q-62 0 -102.5 -12.5t-67 -37.5t-40.5 -73.5t-19 -107.5t-5 -152z" />
<glyph unicode="e" horiz-adv-x="1173" d="M150 551q0 299 102 435t342 136q122 0 204.5 -33t132.5 -103.5t71.5 -171.5t21.5 -247v-60q0 -13 -9.5 -22t-22.5 -9h-636q2 -153 61 -228t185 -79q14 -2 45 -2q120 0 268 25q13 2 23 -6t12 -21l14 -118q1 -13 -6.5 -22.5t-20.5 -11.5q-174 -26 -335 -26 q-245 0 -348.5 133t-103.5 431zM356 657h460q-4 157 -50.5 220.5t-171.5 63.5q-128 0 -182 -65.5t-56 -218.5z" />
<glyph unicode="f" horiz-adv-x="875" d="M76 961v118q0 13 9 22.5t22 9.5h158v162q0 91 24 152t74.5 95.5t117 48.5t162.5 14q49 0 93.5 -2.5t64.5 -5.5l20 -3q13 -2 20.5 -11.5t6.5 -22.5l-11 -117q-2 -13 -12 -20.5t-23 -6.5q-120 8 -159 8q-45 0 -71.5 -3.5t-52.5 -15.5t-38 -39t-12 -71v-162h295 q13 0 22.5 -9.5t9.5 -22.5v-118q0 -13 -9.5 -22.5t-22.5 -9.5h-295v-897q0 -13 -9 -22.5t-22 -9.5h-142q-13 0 -22 9.5t-9 22.5v897h-158q-13 0 -22 9.5t-9 22.5z" />
<glyph unicode="g" horiz-adv-x="1190" d="M87 -173q0 95 50.5 160t131.5 101q-89 50 -89 155q0 14 1 28q10 100 90 159q-118 90 -118 303q0 194 103 291.5t330 97.5q437 0 518 1q13 0 21.5 -9t8.5 -21v-119q0 -30 -36 -30q-129 0 -162 1q83 -96 83 -228q0 -176 -104.5 -277t-328.5 -101q-90 0 -162 23 q-49 -38 -49 -82q0 -89 209 -89q145 0 245 -22.5t155 -66t78 -98.5t23 -130q0 -337 -523 -337q-133 0 -226.5 20t-147 59.5t-77.5 91t-24 119.5zM291 -143q0 -76 62 -111.5t225 -35.5q166 0 234.5 42t68.5 120q0 49 -24.5 77.5t-90.5 44t-182 15.5q-89 0 -149 -11 t-90.5 -32.5t-42 -47t-11.5 -61.5zM358 731q0 -107 51 -159t177 -52q122 0 175 51t53 160q0 108 -53 159t-175 51q-121 0 -174.5 -51t-53.5 -159z" />
<glyph unicode="h" horiz-adv-x="1195" d="M176 32v1512q0 13 9.5 22t22.5 9h142q13 0 22 -9t9 -22v-518q82 96 259 96q221 0 307 -131t86 -432v-527q0 -13 -9 -22.5t-22 -9.5h-142q-13 0 -22 9.5t-9 22.5v526q0 90 -4.5 147t-18 106.5t-38.5 75.5t-65 40t-100 14q-56 0 -95 -14t-64 -40.5t-39 -74.5t-19 -106.5 t-5 -146.5v-527q0 -13 -9 -22.5t-22 -9.5h-142q-13 0 -22.5 9.5t-9.5 22.5z" />
<glyph unicode="i" horiz-adv-x="559" d="M170 1334v123q0 47 47 47h123q48 0 48 -47v-123q0 -47 -48 -47h-123q-47 0 -47 47zM176 32v1047q0 13 9.5 22.5t22.5 9.5h142q13 0 22 -9.5t9 -22.5v-1047q0 -13 -9 -22.5t-22 -9.5h-142q-13 0 -22.5 9.5t-9.5 22.5z" />
<glyph unicode="j" horiz-adv-x="559" d="M-162 -408l17 117q2 13 12.5 21.5t22.5 4.5q49 -11 129 -11q82 0 119.5 26.5t37.5 109.5v1219q0 13 9.5 22.5t22.5 9.5h142q13 0 22 -9.5t9 -22.5v-1218q0 -177 -91 -250q-85 -68 -248 -68h-23q-123 3 -154 14q-13 2 -20.5 12t-6.5 23zM169 1334v123q0 47 47 47h123 q47 0 47 -47v-123q0 -47 -47 -47h-123q-47 0 -47 47z" />
<glyph unicode="k" horiz-adv-x="1094" d="M176 32v1512q0 13 9.5 22t22.5 9h142q13 0 22 -9t9 -22v-897l496 460q9 9 22.5 8.5t22.5 -9.5l91 -90q8 -8 7.5 -22t-10.5 -22l-424 -388l444 -452q8 -9 8 -21q0 -14 -11 -23l-107 -93q-7 -7 -18 -7h-3q-13 1 -23 9l-495 515v-480q0 -13 -9 -22.5t-22 -9.5h-142 q-13 0 -22.5 9.5t-9.5 22.5z" />
<glyph unicode="l" horiz-adv-x="630" d="M178 438v1106q0 13 9.5 22t22.5 9h141q13 0 22.5 -9t9.5 -22v-1087q0 -63 0.5 -91.5t4 -69.5t10.5 -56.5t20 -33.5t33.5 -22.5t49.5 -2.5q13 0 22 -9t9 -22l8 -118q0 -13 -9 -22.5t-22 -9.5q-17 -2 -49 -2q-71 0 -120.5 16.5t-81.5 47.5t-49.5 87t-24 123t-6.5 166z" />
<glyph unicode="m" horiz-adv-x="1685" d="M102 963q-3 6 -3 12q0 7 3 13l56 121q4 10 16 14q5 2 10 2q7 0 14 -3q56 -25 95 -58.5t68 -100.5q64 159 258 159q111 0 181.5 -45.5t100.5 -147.5q57 193 268 193q107 0 175 -25.5t108 -86t55 -147t16 -222.5v-609q0 -13 -9 -22.5t-22 -9.5h-140q-13 0 -23 9.5t-10 22.5 v546q0 91 -4.5 150t-14.5 103t-29.5 66.5t-47.5 33t-70 10.5q-67 0 -101.5 -31t-49 -107t-14.5 -225v-546q0 -13 -9.5 -22.5t-22.5 -9.5h-142q-13 0 -22 9.5t-9 22.5v546q-1 149 -15.5 225t-48.5 107t-100 31q-43 0 -71 -12.5t-47.5 -39.5t-29 -80.5t-13.5 -123t-4 -179.5 v-474q0 -13 -9.5 -22.5t-22.5 -9.5h-142q-13 0 -22 9.5t-9 22.5v576q0 110 -6.5 160t-26.5 91q-26 58 -96 86q-12 5 -18 18z" />
<glyph unicode="n" horiz-adv-x="1268" d="M101 963q-3 6 -3 12q0 7 4 13l56 121q9 16 25 16q7 0 15 -3q28 -13 47.5 -23.5t44 -29t44.5 -45t35 -61.5q87 159 326 159q219 0 315.5 -118.5t96.5 -393.5v-578q0 -13 -9 -22.5t-22 -9.5h-142q-13 0 -22 9.5t-9 22.5v570q0 188 -48.5 263.5t-177.5 75.5 q-128 0 -175.5 -75t-47.5 -264v-570q0 -13 -9.5 -22.5t-22.5 -9.5h-142q-13 0 -22 9.5t-9 22.5v576q0 111 -8 163.5t-30 96.5q-28 50 -91 77q-13 5 -19 18z" />
<glyph unicode="o" d="M150 558q0 150 20.5 251.5t71 174t136.5 105.5t216 33t216 -33t137 -105t72 -174t21 -252t-21 -252t-72 -174.5t-137.5 -106t-215.5 -33.5t-215.5 33t-137 106t-71 175t-20.5 252zM354 558q0 -225 48 -305t190 -80q145 0 194 80t49 305q0 224 -48.5 303.5t-192.5 79.5 t-192 -79t-48 -304z" />
<glyph unicode="p" horiz-adv-x="1272" d="M98 958q-3 6 -3 12q0 7 3 13l55 120q13 22 41 12q56 -23 98.5 -58.5t72.5 -101.5q48 91 125 129t195 38q130 0 215 -32.5t134.5 -105t69 -174t19.5 -254.5q0 -211 -44.5 -335t-133 -176.5t-235.5 -52.5q-175 0 -261 109v-523q0 -13 -9.5 -22.5t-22.5 -9.5h-141 q-13 0 -22.5 9.5t-9.5 22.5v978q0 138 -8.5 202t-32.5 107q-30 55 -88 76q-12 5 -17 17zM449 578v-23q0 -107 9 -175q9 -74 36.5 -122.5t72.5 -66.5t118 -18q61 0 101.5 12.5t67.5 37.5t40.5 73.5t18.5 107t5 152.5q0 228 -48 306.5t-193 78.5q-90 0 -137.5 -31.5 t-68.5 -108t-22 -223.5z" />
<glyph unicode="q" horiz-adv-x="1272" d="M150 556q0 153 19.5 254.5t69 174t134.5 105t215 32.5q117 0 194 -38t125 -129q30 66 72.5 101.5t99.5 58.5q28 10 41 -12l55 -120q3 -6 3 -13q0 -6 -2 -12q-6 -12 -18 -17q-58 -21 -88 -76q-24 -43 -32.5 -107t-8.5 -202v-978q0 -13 -9.5 -22.5t-22.5 -9.5h-142 q-13 0 -22 9.5t-9 22.5v523q-86 -109 -262 -109q-147 0 -235.5 52.5t-132.5 176.5t-44 335zM354 556q0 -93 5 -152t19 -107.5t40.5 -73.5t67 -37.5t102.5 -12.5q73 0 118 18t72.5 66.5t37.5 122.5q8 68 8 175v23q-1 146 -22 223t-69 108.5t-138 31.5q-145 0 -193 -78.5 t-48 -306.5z" />
<glyph unicode="r" horiz-adv-x="987" d="M98 963q-3 6 -3 12q0 7 3 13l55 121q9 16 25 16q7 0 16 -3q57 -23 99 -58t72 -101q83 155 306 159q15 1 30 0q94 0 180 -21q20 -5 20 -36v-213q0 -13 -10.5 -21t-25.5 -7h-96q-15 -1 -25.5 7t-10.5 21v85q-19 1 -37 1q-50 0 -88 -10q-50 -14 -81.5 -43.5t-48.5 -87.5 t-23 -127t-6 -177v-461q0 -13 -9.5 -22.5t-22.5 -9.5h-141q-13 0 -22.5 9.5t-9.5 22.5v529q0 138 -9.5 202t-34.5 110q-24 45 -85 72q-11 5 -17 18z" />
<glyph unicode="s" horiz-adv-x="1038" d="M123 803q1 171 109 247q103 73 295 72h20q159 -2 288 -30q30 -9 25 -36l-17 -115q-2 -13 -12.5 -21t-23.5 -6q-147 24 -260 27h-13q-96 0 -150 -27q-57 -29 -58 -106q0 -64 54.5 -97t166.5 -49q210 -33 299.5 -109t89.5 -233q-3 -326 -400 -329q-194 0 -363 41 q-30 9 -25 36l25 116q2 13 13 20.5t24 3.5q180 -36 326 -36q93 2 144.5 34t52.5 109q0 69 -43.5 102t-142.5 48q-222 34 -323 110.5t-101 227.5z" />
<glyph unicode="t" horiz-adv-x="910" d="M76 961v118q0 13 9 22.5t22 9.5h158l-2 275q0 13 9.5 22.5t22.5 9.5h141q13 0 22.5 -9.5t9.5 -22.5l1 -275h295q13 0 22.5 -9.5t9.5 -22.5v-118q0 -13 -9.5 -22.5t-22.5 -9.5h-296v-619q0 -83 42 -112q37 -25 98 -25h17q37 1 73 5t57.5 7.5t25.5 3.5q13 1 23 -6.5 t12 -20.5l11 -118v-5q0 -11 -6 -19q-8 -10 -21 -11q-65 -14 -175 -17h-27q-160 0 -244 68q-92 74 -91 250l2 619h-158q-13 0 -22 9.5t-9 22.5z" />
<glyph unicode="u" horiz-adv-x="1249" d="M165 504v575q0 13 9.5 22.5t22.5 9.5h142q13 0 22 -9.5t9 -22.5v-567q0 -99 8.5 -158.5t33 -103t68 -60.5t114.5 -17q130 0 177.5 72t47.5 267v567q0 13 9.5 22.5t22.5 9.5h141q13 0 22.5 -9.5t9.5 -22.5v-569q0 -116 9.5 -170.5t34.5 -96.5q29 -48 85 -70q12 -5 18 -17 q3 -6 3 -12.5t-3 -12.5l-56 -120q-13 -23 -41 -13q-27 12 -47 23.5t-44 30t-44 45.5t-36 62q-89 -167 -326 -167q-152 0 -240.5 48.5t-130 159.5t-41.5 304z" />
<glyph unicode="v" horiz-adv-x="1129" d="M90 1038q-3 8 -3 15q0 19 22 26l138 38q6 2 12 2q7 -1 13 -3q12 -6 15 -18l282 -775l280 775q3 12 15 18q6 3 13 3q6 0 12 -2l132 -38q22 -7 22 -26q0 -7 -3 -15l-383 -1010q-10 -28 -39 -28h-106q-29 0 -39 28z" />
<glyph unicode="w" horiz-adv-x="1512" d="M90 1040q-2 8 -2 14q0 20 21 27l138 38q6 2 11 2q8 0 14 -4q12 -6 16 -19l210 -764l173 503q7 15 15.5 22t27.5 7h88q31 0 41 -29l176 -511l211 770q8 23 27 23q6 0 14 -2l131 -36q23 -8 23 -28q0 -6 -2 -13l-301 -1012q-8 -28 -38 -28h-98q-29 0 -39 28l-189 544 l-191 -544q-9 -28 -38 -28h-97q-30 0 -40 28z" />
<glyph unicode="x" horiz-adv-x="1071" d="M104 90q-1 3 -1 6q0 10 6 19l304 443l-304 444q-7 12 -3.5 24.5t15.5 19.5l126 66q10 5 18 5q15 0 25 -17l246 -366l247 366q11 16 25 16q8 0 18 -5l118 -62q10 -7 13 -20t-4 -25l-299 -437l309 -450q5 -7 5 -17v-8q-2 -14 -15 -20l-124 -69q-9 -6 -17 -6q-15 0 -27 19 l-256 375l-253 -377q-12 -16 -27 -16q-8 0 -17 5l-114 66q-12 7 -14 21z" />
<glyph unicode="y" horiz-adv-x="1146" d="M98 1041q-2 5 -2 10q0 8 4 15q6 11 18 13l137 40q3 1 7 1q9 0 18 -4q12 -6 16 -18l274 -789l298 789q8 21 28 21q7 0 15 -2l127 -38q14 -2 19 -15q3 -6 3 -13t-3 -14l-564 -1466q-7 -21 -27 -21q-7 0 -15 3l-125 34q-13 4 -18.5 17t-0.5 26l156 409z" />
<glyph unicode="z" horiz-adv-x="1091" d="M134 32v160q0 16 9 27l583 710h-545q-13 0 -22 9.5t-9 22.5v118q0 13 9 22.5t22 9.5h745q13 0 22.5 -9.5t9.5 -22.5v-162q0 -12 -10 -24l-584 -712h562q13 0 22.5 -9t9.5 -22v-118q0 -13 -9.5 -22.5t-22.5 -9.5h-761q-13 0 -22 9.5t-9 22.5z" />
<glyph unicode="{" horiz-adv-x="724" d="M126 498v124q0 12 8.5 20.5t23.5 8.5q58 0 80 34t22 120q0 33 -16 251q-8 101 -8 166q0 141 33.5 218.5t103 108t194.5 30.5q13 0 22.5 -9.5t9.5 -22.5v-118q0 -13 -9.5 -22.5t-22.5 -9.5q-69 0 -97.5 -44t-28.5 -148q0 -55 8 -146q13 -128 13 -218q0 -218 -78 -286 q78 -75 78 -308q0 -92 -13 -220q-8 -91 -8 -142q0 -95 27.5 -129.5t98.5 -34.5q13 0 22.5 -9t9.5 -22v-119q0 -13 -9.5 -22t-22.5 -9q-96 0 -154.5 12t-100.5 47.5t-59 99t-17 166.5q0 64 8 165q16 218 16 261q0 95 -22 136.5t-80 41.5q-32 0 -32 29z" />
<glyph unicode="|" horiz-adv-x="464" d="M126 -263v1911q0 13 9.5 22t22.5 9h149q13 0 22.5 -9t9.5 -22v-1911q0 -13 -9.5 -22.5t-22.5 -9.5h-149q-13 0 -22.5 9.5t-9.5 22.5z" />
<glyph unicode="}" horiz-adv-x="724" d="M126 -310q0 13 9.5 22t22.5 9q71 0 98.5 34.5t27.5 129.5q0 51 -8 142q-13 128 -13 220q0 234 77 308q-77 68 -77 286q0 90 13 218q8 91 8 146q0 104 -28.5 148t-97.5 44q-13 0 -22.5 9.5t-9.5 22.5v118q0 13 9.5 22.5t22.5 9.5q94 0 154 -16t101 -57t58 -109t17 -175 q0 -65 -8 -166q-15 -204 -15 -251q0 -86 22 -120t80 -34q15 0 23.5 -8.5t8.5 -20.5v-124q0 -29 -32 -29q-58 0 -80 -41.5t-22 -136.5q0 -57 15 -261q8 -101 8 -165q0 -83 -12 -139.5t-34.5 -93.5t-64 -57t-92 -27.5t-127.5 -7.5q-13 0 -22.5 9t-9.5 22v119z" />
<glyph unicode="~" horiz-adv-x="1113" d="M128 618q8 128 84.5 195.5t178.5 67.5q107 0 178 -68q99 -99 153 -99q51 0 69 88q2 13 13 20t23 5l134 -9q28 -8 25 -38q-4 -86 -44.5 -147t-96 -87t-120.5 -26q-107 0 -178 66q-102 98 -155 98q-51 0 -69 -89q-2 -13 -13.5 -20t-24.5 -5l-132 11q-13 2 -20 13t-5 24z " />
<glyph unicode="&#xa1;" horiz-adv-x="500" d="M129 1227v139q0 21 15.5 36.5t36.5 15.5h139q21 0 35.5 -15.5t14.5 -36.5v-139q0 -21 -14.5 -35.5t-35.5 -14.5h-139q-21 0 -36.5 14.5t-15.5 35.5zM140 32l24 904q0 13 9 22t22 9h111q13 0 22 -9t9 -22l24 -904q0 -13 -9.5 -22.5t-22.5 -9.5h-157q-13 0 -22.5 9.5 t-9.5 22.5z" />
<glyph unicode="&#xa2;" horiz-adv-x="989" d="M126 709q0 111 16 190.5t54.5 143t106 101t166.5 50.5v192q0 13 9.5 22.5t22.5 9.5h142q13 0 22 -9.5t9 -22.5v-184q38 -1 78 -4.5t62 -5.5l21 -3q13 -2 20.5 -11.5t6.5 -22.5l-14 -118q-2 -13 -12 -21t-23 -6q-77 14 -214 14q-156 0 -212 -73t-56 -242 q0 -79 11.5 -133.5t40.5 -97.5t82.5 -63.5t133.5 -20.5q133 0 217 12q13 2 23 -5.5t12 -20.5l11 -117q2 -13 -6 -23.5t-21 -11.5q-78 -9 -161 -14v-178q0 -13 -9 -22t-22 -9h-142q-13 0 -22.5 9t-9.5 22v186q-99 13 -166.5 50t-106 101t-54.5 144t-16 192z" />
<glyph unicode="&#xa3;" horiz-adv-x="1181" d="M128 32v124q0 13 9 22t22 9h101v449h-101q-13 0 -22 9.5t-9 22.5v124q0 13 9 22.5t22 9.5h101v115q0 267 101 375t356 112q156 0 299 -27q28 -8 25 -36l-14 -125q-1 -12 -12.5 -19.5t-23.5 -5.5q-164 27 -274 25q-144 -4 -194 -67.5t-50 -231.5v-115h370q13 0 22 -9.5 t9 -22.5v-124q0 -13 -9 -22.5t-22 -9.5h-370v-449h551q13 0 22.5 -9t9.5 -22v-124q0 -13 -9.5 -22.5t-22.5 -9.5h-865q-13 0 -22 9.5t-9 22.5z" />
<glyph unicode="&#xa4;" horiz-adv-x="1416" d="M125 223q0 13 10 23l142 140q-55 98 -55 265v55q0 166 55 264l-142 142q-10 8 -10 21t10 23l95 95q10 10 23 10t21 -10l147 -148q98 49 253 49h57q155 0 260 -51l150 150q10 10 23 10t21 -10l96 -95q10 -10 9.5 -23t-11.5 -21l-148 -148q52 -101 52 -258v-55 q0 -165 -50 -259l146 -146q10 -10 10 -23t-8 -23l-96 -94q-22 -22 -44 1l-150 150q-99 -51 -260 -51h-57q-158 0 -253 46l-147 -145q-21 -21 -44 -1l-95 94q-10 10 -10 23zM430 651q0 -132 60 -194.5t189 -62.5h57q129 0 189 62.5t60 194.5v55q0 134 -60 196t-189 62h-57 q-129 0 -189 -62t-60 -196v-55z" />
<glyph unicode="&#xa5;" horiz-adv-x="1257" d="M96 1320q-12 24 13 40l143 67q13 6 25 1t18 -18l343 -668l337 668q13 28 43 17l130 -61q27 -16 13 -41l-176 -345h134q13 0 22 -9.5t9 -22.5v-124q0 -13 -9 -22.5t-22 -9.5h-230l-56 -107h286q13 0 22 -9t9 -22v-125q0 -13 -9 -22t-22 -9h-380v-466q0 -13 -9.5 -22.5 t-22.5 -9.5h-149q-13 0 -22.5 9.5t-9.5 22.5v464l-1 2h-382q-13 0 -22 9t-9 22v125q0 13 9 22t22 9h284l-55 107h-229q-13 0 -22 9.5t-9 22.5v124q0 13 9 22.5t22 9.5h131z" />
<glyph unicode="&#xa6;" horiz-adv-x="464" d="M126 -263v844q0 13 9.5 22.5t22.5 9.5h149q13 0 22.5 -9.5t9.5 -22.5v-844q0 -13 -9.5 -22.5t-22.5 -9.5h-149q-13 0 -22.5 9.5t-9.5 22.5zM126 803v845q0 13 9.5 22t22.5 9h149q13 0 22.5 -9t9.5 -22v-845q0 -13 -9.5 -22t-22.5 -9h-149q-13 0 -22.5 9t-9.5 22z" />
<glyph unicode="&#xa7;" horiz-adv-x="1126" d="M99 589q0 214 142 295q-73 47 -103.5 119t-30.5 183q0 98 20 168.5t55.5 114t92.5 69t121 35t152 9.5q158 0 339 -29q27 -5 27 -36q-2 -11 -4 -34t-4 -40.5t-6.5 -36t-13 -29t-20.5 -10.5h-4q-152 27 -312 27q-111 0 -170.5 -44t-59.5 -159q0 -55 20 -80q16 -66 72 -95 t172 -42q242 -27 342.5 -128t100.5 -302q0 -213 -143 -298q72 -46 103.5 -119t31.5 -181q0 -98 -20.5 -168.5t-55.5 -114t-92.5 -69t-121 -34.5t-151.5 -9q-197 0 -370 36q-27 5 -27 36q2 11 3.5 33.5t4 40.5t6.5 36.5t12.5 29t20.5 10.5h5l41 -9q145 -26 303 -26 q111 0 170.5 43.5t59.5 158.5q0 52 -21 82q-16 65 -72 94.5t-172 42.5q-243 27 -343 127t-100 303zM312 591q0 -112 52.5 -164.5t186.5 -68.5l21 -4q120 2 181 45t61 143q0 110 -53 162.5t-186 70.5q-14 0 -20 2q-122 -2 -182.5 -44t-60.5 -142z" />
<glyph unicode="&#xa8;" horiz-adv-x="858" d="M118 1334v123q0 47 47 47h123q48 0 48 -47v-123q0 -47 -48 -47h-123q-47 0 -47 47zM523 1334v123q0 47 47 47h123q47 0 47 -47v-123q0 -47 -47 -47h-123q-47 0 -47 47z" />
<glyph unicode="&#xa9;" horiz-adv-x="1737" d="M126 692v25q0 394 181.5 575t552.5 181h17q371 0 553 -181t182 -575v-25q0 -396 -181.5 -576.5t-553.5 -180.5h-17q-372 0 -553 180.5t-181 576.5zM302 692q0 -314 138 -451t420 -137h17q139 0 241 32t173.5 101t107 182.5t35.5 272.5v25q0 313 -137.5 449.5 t-419.5 136.5h-17q-140 0 -241.5 -31.5t-173.5 -100.5t-107.5 -182t-35.5 -272v-25zM468 704q0 82 6 140.5t22.5 113t45.5 89.5t75 61.5t112.5 38.5t155.5 12q157 0 276 -18q13 -2 20 -13t5 -24l-8 -121q-1 -12 -12.5 -19.5t-23.5 -5.5q-147 17 -257 17q-69 0 -112 -15.5 t-65.5 -52t-30 -82.5t-7.5 -121t8 -120t31.5 -78.5t66.5 -46.5t113 -13q121 0 253 16q12 2 23.5 -6t12.5 -20l8 -119q2 -13 -5.5 -24t-19.5 -13q-112 -18 -276 -18q-89 0 -155.5 13t-112 40t-75.5 62.5t-46 88t-22 108t-6 130.5z" />
<glyph unicode="&#xaa;" horiz-adv-x="831" d="M126 994q0 113 58 153t175 38q67 -3 96 -16q1 5 1 19t-1 19q-1 36 -21.5 51.5t-63.5 15.5q-73 0 -164 -18q-22 -3 -25 18l-16 109q-3 19 19 24q82 19 193 19q124 0 185.5 -46.5t61.5 -155.5v-117q0 -84 23 -116q14 -21 41 -39q23 -15 13 -34l-50 -113q-11 -20 -32 -6 q-22 10 -46.5 30.5t-38.5 43.5q-22 -38 -75 -60t-111 -22q-111 0 -166.5 43t-55.5 160zM287 994q0 -42 20.5 -55t59.5 -13q88 3 88 103q0 21 -22 27.5t-66 6.5q-40 0 -60 -15t-20 -54z" />
<glyph unicode="&#xab;" horiz-adv-x="1167" d="M132 540q-14 14 0 35l382 477q16 21 47 10l85 -22q15 -6 17 -20t-6 -24l-301 -438l301 -438q8 -10 5.5 -26t-16.5 -20l-85 -20q-33 -12 -49 9zM509 540q-14 14 0 35l381 477q16 21 47 10l85 -22q15 -6 17 -20t-6 -24l-300 -438l300 -438q8 -10 5.5 -26t-16.5 -20l-85 -20 q-32 -12 -48 9z" />
<glyph unicode="&#xac;" horiz-adv-x="1101" d="M126 492v140q0 13 9.5 22t22.5 9h786q13 0 22 -9t9 -22v-456q0 -13 -9 -22t-22 -9h-125q-13 0 -22 9t-9 22v284h-630q-13 0 -22.5 9.5t-9.5 22.5z" />
<glyph unicode="&#xad;" horiz-adv-x="786" d="M126 506v118q0 13 9.5 22t22.5 9h471q13 0 22 -9t9 -22v-118q0 -13 -9 -22.5t-22 -9.5h-471q-13 0 -22.5 9.5t-9.5 22.5z" />
<glyph unicode="&#xae;" horiz-adv-x="1269" d="M88 1100v15q0 281 133 410t404 129h10q270 0 403 -129t133 -410v-15q0 -282 -132.5 -410.5t-403.5 -128.5h-10q-272 0 -404.5 128.5t-132.5 410.5zM258 1100q0 -200 89.5 -290t277.5 -90h10q186 0 276.5 90t90.5 290v15q0 199 -90.5 290.5t-276.5 91.5h-10 q-187 0 -277 -91.5t-90 -290.5v-15zM429 849v529q0 19 18 19h226q105 0 151 -42t46 -147q0 -82 -20 -120t-65 -58l102 -156q6 -8 3.5 -17t-9.5 -11l-112 -20q-20 -4 -27 6l-110 173h-49v-156q0 -19 -19 -19h-117q-18 0 -18 19zM583 1141h74q34 0 46 13.5t12 55.5t-12 55 t-46 13h-74v-137z" />
<glyph unicode="&#xaf;" horiz-adv-x="800" d="M118 1322v113q0 13 9.5 22.5t22.5 9.5h501q13 0 22 -9.5t9 -22.5v-113q0 -13 -9 -22.5t-22 -9.5h-501q-13 0 -22.5 9.5t-9.5 22.5z" />
<glyph unicode="&#xb0;" horiz-adv-x="886" d="M126 1109q0 317 318 317q154 0 235.5 -78t81.5 -239q0 -320 -317 -320q-318 0 -318 320zM301 1109q0 -85 38 -124.5t104 -39.5t104.5 40t38.5 124q0 82 -38.5 121.5t-103.5 39.5q-143 0 -143 -161z" />
<glyph unicode="&#xb1;" horiz-adv-x="1116" d="M126 110v133q0 13 9.5 22t22.5 9h801q13 0 22.5 -9t9.5 -22v-133q0 -13 -9.5 -22t-22.5 -9h-801q-13 0 -22.5 9t-9.5 22zM126 731v132q0 13 9.5 22.5t22.5 9.5h294v299q0 13 9.5 22.5t22.5 9.5h149q13 0 22.5 -9.5t9.5 -22.5v-299h294q13 0 22.5 -9.5t9.5 -22.5v-132 q0 -13 -9.5 -22.5t-22.5 -9.5h-294v-299q0 -13 -9.5 -22t-22.5 -9h-149q-13 0 -22.5 9t-9.5 22v299h-294q-13 0 -22.5 9.5t-9.5 22.5z" />
<glyph unicode="&#xb4;" horiz-adv-x="617" d="M132 1262q-21 23 2 46l243 245q21 23 42 0l88 -100q10 -11 10 -23t-11 -20l-289 -200q-26 -20 -44 1z" />
<glyph unicode="&#xb5;" horiz-adv-x="1260" d="M126 -422v1501q0 13 9.5 22.5t22.5 9.5h141q13 0 22.5 -9.5t9.5 -22.5v-567q0 -99 8.5 -158.5t33 -103t68 -60.5t114.5 -17q130 0 177.5 72t47.5 267v567q0 13 9 22.5t22 9.5h142q13 0 22.5 -9.5t9.5 -22.5v-569q0 -115 8 -167.5t31 -96.5q29 -47 90 -73 q12 -5 17.5 -17.5t-0.5 -24.5l-55 -120q-15 -25 -41 -13q-57 22 -99.5 58t-72.5 103q-89 -167 -318 -167q-148 0 -214 66v-480q0 -13 -9.5 -22.5t-22.5 -9.5h-141q-13 0 -22.5 9.5t-9.5 22.5z" />
<glyph unicode="&#xb6;" horiz-adv-x="1665" d="M126 1111q0 95 8.5 161t34 127t70.5 97t119.5 57.5t180.5 21.5h969q13 0 22 -9t9 -22v-118q0 -13 -9 -22.5t-22 -9.5h-137v-1819q0 -13 -9.5 -22.5t-22.5 -9.5h-150q-13 0 -22 9.5t-9 22.5v1819h-290v-1819q0 -13 -9 -22.5t-22 -9.5h-150q-13 0 -22.5 9.5t-9.5 22.5v1071 h-118q-106 0 -180.5 21.5t-119 57.5t-69.5 97.5t-33.5 127.5t-8.5 161z" />
<glyph unicode="&#xb7;" horiz-adv-x="493" d="M126 644v139q0 21 15.5 36.5t36.5 15.5h139q21 0 35.5 -15.5t14.5 -36.5v-139q0 -21 -14.5 -35.5t-35.5 -14.5h-139q-21 0 -36.5 14.5t-15.5 35.5z" />
<glyph unicode="&#xb8;" horiz-adv-x="641" d="M101 -391l11 46q10 32 39 25q84 -19 136 -19q51 0 72.5 13t21.5 52t-26.5 51t-91.5 12h-79q-24 0 -33.5 13.5t-3.5 36.5l103 232q11 27 40 22l55 -5q13 -4 19.5 -15t2.5 -24l-49 -142q119 -4 170 -47t51 -134q0 -98 -55.5 -141.5t-188.5 -41.5q-38 0 -94 8.5t-81 19.5 q-27 12 -19 38z" />
<glyph unicode="&#xba;" horiz-adv-x="765" d="M126 1107q0 69 6.5 117t23 88t46 63.5t74 36t107.5 12.5t107.5 -12.5t74 -36t46 -63.5t23 -88t6.5 -117q0 -86 -10.5 -142.5t-38.5 -98.5t-79 -61t-129 -19t-129 19t-79 61t-38.5 98.5t-10.5 142.5zM302 1107q0 -95 14.5 -131.5t64.5 -36.5q51 0 66.5 36.5t15.5 131.5 q0 94 -15 130t-65 36q-51 0 -66 -36t-15 -130z" />
<glyph unicode="&#xbb;" horiz-adv-x="1167" d="M128 1020q2 14 17 20l85 22q31 11 47 -10l382 -477q14 -21 0 -35l-380 -477q-16 -21 -49 -9l-85 20q-14 4 -16.5 20t5.5 26l301 438l-301 438q-8 10 -6 24zM504 1020q2 14 17 20l86 22q31 11 47 -10l381 -477q14 -21 0 -35l-380 -477q-16 -21 -48 -9l-86 20 q-14 4 -16.5 20t5.5 26l301 438l-301 438q-8 10 -6 24z" />
<glyph unicode="&#xbf;" horiz-adv-x="1038" d="M128 413q0 213 89.5 311.5t311.5 130.5v141q0 13 9.5 22t22.5 9h143q13 0 22.5 -9t9.5 -22v-301q0 -13 -9.5 -22.5t-22.5 -9.5q-75 0 -127 -5t-100 -20.5t-76 -43t-44.5 -72.5t-16.5 -109q0 -70 17 -116.5t50.5 -70.5t71.5 -34t93 -12q131 -4 283 26q11 2 23 -5.5 t14 -19.5l20 -123q5 -27 -25 -36q-128 -26 -315 -30q-82 -1 -144.5 8t-121 36.5t-96 73.5t-60 122.5t-22.5 180.5zM514 1230v137q0 21 15.5 36t36.5 15h135q21 0 36.5 -15t15.5 -36v-137q0 -21 -15.5 -35.5t-36.5 -14.5h-135q-21 0 -36.5 14.5t-15.5 35.5z" />
<glyph unicode="&#xc0;" horiz-adv-x="1296" d="M66 68l463 1328q8 22 35 22h169q26 0 34 -22l463 -1324q4 -12 -2 -23t-17 -16l-144 -46q-27 -10 -41 19l-108 317h-551l-107 -318q-5 -12 -16.5 -17.5t-24.5 -1.5l-134 42q-11 4 -17 16t-2 24zM329 1659l68 113q7 13 19 15.5t24 -5.5l310 -196q25 -14 11 -44l-32 -56 q-15 -24 -44 -10l-345 140q-28 13 -11 43zM430 510h424l-211 634z" />
<glyph unicode="&#xc1;" horiz-adv-x="1296" d="M66 68l463 1328q8 22 35 22h169q26 0 34 -22l463 -1324q4 -12 -2 -23t-17 -16l-144 -46q-27 -10 -41 19l-108 317h-551l-107 -318q-5 -12 -16.5 -17.5t-24.5 -1.5l-134 42q-11 4 -17 16t-2 24zM430 510h424l-211 634zM566 1542q-14 30 11 44l310 196q12 8 23.5 5.5 t18.5 -15.5l68 -113q17 -30 -11 -43l-345 -140q-29 -14 -44 10z" />
<glyph unicode="&#xc2;" horiz-adv-x="1296" d="M66 68l463 1328q8 22 35 22h169q26 0 34 -22l463 -1324q4 -12 -2 -23t-17 -16l-144 -46q-27 -10 -41 19l-108 317h-551l-107 -318q-5 -12 -16.5 -17.5t-24.5 -1.5l-134 42q-11 4 -17 16t-2 24zM327.5 1570.5q2.5 13.5 12.5 20.5l284 191q26 17 50 0l276 -191 q12 -7 14 -20.5t-5 -23.5l-31 -58q-14 -25 -43 -10l-236 118l-244 -118q-10 -7 -23.5 -4t-19.5 14l-31 58q-6 10 -3.5 23.5zM430 510h424l-211 634z" />
<glyph unicode="&#xc3;" horiz-adv-x="1296" d="M66 68l463 1328q8 22 35 22h169q26 0 34 -22l463 -1324q4 -12 -2 -23t-17 -16l-144 -46q-27 -10 -41 19l-108 317h-551l-107 -318q-5 -12 -16.5 -17.5t-24.5 -1.5l-134 42q-11 4 -17 16t-2 24zM307 1547q6 49 20.5 91t39.5 77t65 54t91 17q44 -2 78.5 -15.5t55.5 -32 t38 -36.5t35.5 -30.5t39.5 -12.5q31 0 47 22.5t26 71.5q4 16 13 24t28 6l57 -9q12 -2 20.5 -10t7.5 -20q-12 -106 -64.5 -175t-149.5 -65q-44 2 -78.5 15.5t-55.5 32t-38.5 37t-36 31t-39.5 12.5q-31 0 -47 -22t-27 -72q-5 -34 -39 -30l-58 9q-12 2 -21 10t-8 20zM430 510 h424l-211 634z" />
<glyph unicode="&#xc4;" horiz-adv-x="1296" d="M66 68l463 1328q8 22 35 22h169q26 0 34 -22l463 -1324q4 -12 -2 -23t-17 -16l-144 -46q-27 -10 -41 19l-108 317h-551l-107 -318q-5 -12 -16.5 -17.5t-24.5 -1.5l-134 42q-11 4 -17 16t-2 24zM336 1571v123q0 47 47 47h123q47 0 47 -47v-123q0 -48 -47 -48h-123 q-47 0 -47 48zM430 510h424l-211 634zM740 1571v123q0 47 48 47h123q47 0 47 -47v-123q0 -48 -47 -48h-123q-48 0 -48 48z" />
<glyph unicode="&#xc5;" horiz-adv-x="1296" d="M66 68l463 1328q8 22 35 22h16q-71 15 -109.5 67t-38.5 134v21q0 97 55 152.5t153 55.5h20q97 0 152.5 -55.5t55.5 -152.5v-21q0 -82 -39.5 -134t-110.5 -67h15q26 0 34 -22l463 -1324q4 -12 -2 -23t-17 -16l-144 -46q-27 -10 -41 19l-108 317h-551l-107 -318 q-5 -12 -16.5 -17.5t-24.5 -1.5l-134 42q-11 4 -17 16t-2 24zM430 510h424l-211 634zM566 1619q0 -35 20 -54.5t54 -19.5h20q34 0 54 19.5t20 54.5v21q0 34 -20 54t-54 20h-20q-34 0 -54 -20t-20 -54v-21z" />
<glyph unicode="&#xc6;" horiz-adv-x="1748" d="M66 72l585 1324q10 22 41 22h891q13 0 22.5 -9.5t9.5 -22.5v-124q0 -13 -9.5 -22.5t-22.5 -9.5h-573v-408h447q13 0 22.5 -9t9.5 -22v-125q0 -13 -9.5 -22t-22.5 -9h-447v-455h573q13 0 22.5 -9.5t9.5 -22.5v-116q0 -13 -9.5 -22.5t-22.5 -9.5h-754q-13 0 -22.5 9.5 t-9.5 22.5v293h-394l-145 -320q-4 -13 -16 -18.5t-25 -0.5l-135 46q-27 17 -16 40zM474 512h323v717z" />
<glyph unicode="&#xc7;" horiz-adv-x="1200" d="M170 707q0 148 9.5 254t33 190t59.5 136t94 85.5t132 46t176 10.5q200 -5 339 -27q13 -2 20 -12.5t5 -23.5l-14 -123q-1 -12 -12.5 -19.5t-23.5 -5.5q-124 18 -314 23q-73 2 -120 -10.5t-82.5 -44.5t-53.5 -95t-26.5 -153.5t-8.5 -230.5q0 -117 5 -197.5t19 -141.5 t34 -96.5t54.5 -57t75.5 -28.5t103 -6q194 5 314 25q12 2 23.5 -5.5t12.5 -19.5l14 -125q2 -13 -5 -23.5t-20 -12.5q-118 -19 -263 -24l-30 -88q119 -4 170 -47t51 -134q0 -98 -56 -141.5t-189 -41.5q-38 0 -94 8.5t-81 19.5q-26 12 -18 38l11 46q10 32 39 25 q84 -19 135 -19t73 13t22 52t-26.5 51t-91.5 12h-79q-24 0 -34 13.5t-4 36.5l68 153q-107 3 -181.5 27.5t-127 74t-82 135.5t-42.5 199.5t-13 278.5z" />
<glyph unicode="&#xc8;" horiz-adv-x="1140" d="M189 32v1354q0 13 9.5 22.5t22.5 9.5h754q13 0 22.5 -9.5t9.5 -22.5v-124q0 -13 -9.5 -22.5t-22.5 -9.5h-573v-408h447q13 0 22.5 -9t9.5 -22v-125q0 -13 -9.5 -22t-22.5 -9h-447v-455h573q13 0 22.5 -9.5t9.5 -22.5v-116q0 -13 -9.5 -22.5t-22.5 -9.5h-754 q-13 0 -22.5 9.5t-9.5 22.5zM381 1659l68 113q7 13 19 15.5t24 -5.5l310 -196q25 -14 11 -44l-32 -56q-15 -24 -44 -10l-345 140q-28 13 -11 43z" />
<glyph unicode="&#xc9;" horiz-adv-x="1140" d="M189 32v1354q0 13 9.5 22.5t22.5 9.5h754q13 0 22.5 -9.5t9.5 -22.5v-124q0 -13 -9.5 -22.5t-22.5 -9.5h-573v-408h447q13 0 22.5 -9t9.5 -22v-125q0 -13 -9.5 -22t-22.5 -9h-447v-455h573q13 0 22.5 -9.5t9.5 -22.5v-116q0 -13 -9.5 -22.5t-22.5 -9.5h-754 q-13 0 -22.5 9.5t-9.5 22.5zM405 1542q-14 30 11 44l310 196q12 8 24 5.5t19 -15.5l68 -113q17 -30 -11 -43l-346 -140q-29 -14 -44 10z" />
<glyph unicode="&#xca;" horiz-adv-x="1140" d="M189 32v1354q0 13 9.5 22.5t22.5 9.5h754q13 0 22.5 -9.5t9.5 -22.5v-124q0 -13 -9.5 -22.5t-22.5 -9.5h-573v-408h447q13 0 22.5 -9t9.5 -22v-125q0 -13 -9.5 -22t-22.5 -9h-447v-455h573q13 0 22.5 -9.5t9.5 -22.5v-116q0 -13 -9.5 -22.5t-22.5 -9.5h-754 q-13 0 -22.5 9.5t-9.5 22.5zM283.5 1570.5q2.5 13.5 12.5 20.5l284 191q26 17 50 0l276 -191q12 -7 14 -20.5t-5 -23.5l-31 -58q-14 -25 -43 -10l-236 118l-244 -118q-10 -7 -23.5 -4t-19.5 14l-31 58q-6 10 -3.5 23.5z" />
<glyph unicode="&#xcb;" horiz-adv-x="1140" d="M189 32v1354q0 13 9.5 22.5t22.5 9.5h754q13 0 22.5 -9.5t9.5 -22.5v-124q0 -13 -9.5 -22.5t-22.5 -9.5h-573v-408h447q13 0 22.5 -9t9.5 -22v-125q0 -13 -9.5 -22t-22.5 -9h-447v-455h573q13 0 22.5 -9.5t9.5 -22.5v-116q0 -13 -9.5 -22.5t-22.5 -9.5h-754 q-13 0 -22.5 9.5t-9.5 22.5zM284 1571v123q0 47 47 47h123q47 0 47 -47v-123q0 -48 -47 -48h-123q-47 0 -47 48zM688 1571v123q0 47 48 47h123q47 0 47 -47v-123q0 -48 -47 -48h-123q-48 0 -48 48z" />
<glyph unicode="&#xcc;" horiz-adv-x="880" d="M134 32v124q0 13 9 22t22 9h169v1043h-169q-13 0 -22 9.5t-9 22.5v124q0 13 9 22.5t22 9.5h550q13 0 22.5 -9.5t9.5 -22.5v-124q0 -13 -9.5 -22.5t-22.5 -9.5h-168v-1043h168q13 0 22.5 -9t9.5 -22v-124q0 -13 -9.5 -22.5t-22.5 -9.5h-550q-13 0 -22 9.5t-9 22.5z M170 1659l68 113q7 13 18.5 15.5t23.5 -5.5l311 -196q25 -14 11 -44l-32 -56q-15 -24 -44 -10l-345 140q-28 13 -11 43z" />
<glyph unicode="&#xcd;" horiz-adv-x="880" d="M134 32v124q0 13 9 22t22 9h169v1043h-169q-13 0 -22 9.5t-9 22.5v124q0 13 9 22.5t22 9.5h550q13 0 22.5 -9.5t9.5 -22.5v-124q0 -13 -9.5 -22.5t-22.5 -9.5h-168v-1043h168q13 0 22.5 -9t9.5 -22v-124q0 -13 -9.5 -22.5t-22.5 -9.5h-550q-13 0 -22 9.5t-9 22.5z M284 1542q-14 30 11 44l310 196q12 8 23.5 5.5t18.5 -15.5l68 -113q17 -30 -11 -43l-345 -140q-29 -14 -44 10z" />
<glyph unicode="&#xce;" horiz-adv-x="880" d="M124.5 1570.5q2.5 13.5 12.5 20.5l284 191q26 17 50 0l276 -191q12 -7 14 -20.5t-5 -23.5l-31 -58q-14 -25 -43 -10l-236 118l-244 -118q-10 -7 -23.5 -4t-19.5 14l-31 58q-6 10 -3.5 23.5zM134 32v124q0 13 9 22t22 9h169v1043h-169q-13 0 -22 9.5t-9 22.5v124 q0 13 9 22.5t22 9.5h550q13 0 22.5 -9.5t9.5 -22.5v-124q0 -13 -9.5 -22.5t-22.5 -9.5h-168v-1043h168q13 0 22.5 -9t9.5 -22v-124q0 -13 -9.5 -22.5t-22.5 -9.5h-550q-13 0 -22 9.5t-9 22.5z" />
<glyph unicode="&#xcf;" horiz-adv-x="880" d="M126 1571v123q0 47 47 47h123q47 0 47 -47v-123q0 -48 -47 -48h-123q-47 0 -47 48zM134 32v124q0 13 9 22t22 9h169v1043h-169q-13 0 -22 9.5t-9 22.5v124q0 13 9 22.5t22 9.5h550q13 0 22.5 -9.5t9.5 -22.5v-124q0 -13 -9.5 -22.5t-22.5 -9.5h-168v-1043h168 q13 0 22.5 -9t9.5 -22v-124q0 -13 -9.5 -22.5t-22.5 -9.5h-550q-13 0 -22 9.5t-9 22.5zM531 1571v123q0 47 47 47h123q47 0 47 -47v-123q0 -48 -47 -48h-123q-47 0 -47 48z" />
<glyph unicode="&#xd0;" horiz-adv-x="1367" d="M80 657v118q0 13 10.5 22.5t24.5 9.5h90v579q0 13 9 22.5t22 9.5h426q132 0 222 -22.5t153 -70.5t97.5 -134.5t49.5 -201.5t15 -286q0 -137 -10.5 -238.5t-36.5 -182t-65.5 -132.5t-100.5 -86.5t-139.5 -49t-184.5 -14.5h-426q-13 0 -22 9.5t-9 22.5v593h-90 q-14 0 -24.5 9.5t-10.5 22.5zM417 187h268q91 0 146.5 22t91.5 82.5t49 157t13 254.5q0 164 -13 263t-49 160t-91 82.5t-147 21.5h-268v-423h216q13 0 23 -9.5t10 -22.5v-118q0 -13 -10 -22.5t-23 -9.5h-216v-438z" />
<glyph unicode="&#xd1;" horiz-adv-x="1370" d="M189 32v1354q0 13 9.5 22.5t22.5 9.5h185q28 0 38 -17l525 -1032v1017q0 13 9 22.5t22 9.5h150q13 0 22.5 -9.5t9.5 -22.5v-1354q0 -13 -9.5 -22.5t-22.5 -9.5h-186q-30 0 -38 17l-524 1032v-1017q0 -13 -9.5 -22.5t-22.5 -9.5h-149q-13 0 -22.5 9.5t-9.5 22.5zM347 1547 q12 106 64.5 174.5t150.5 64.5q53 -2 94 -22.5t61 -43.5t44 -42t49 -19q31 0 46 22.5t26 71.5q4 16 13 24t28 6l57 -9q12 -2 20.5 -10t7.5 -20q-12 -106 -64.5 -175t-149.5 -65q-44 2 -78.5 15.5t-55.5 32t-38 37t-35.5 31t-39.5 12.5q-31 0 -47 -22t-27 -72q-5 -34 -40 -30 l-58 9q-12 2 -20.5 10t-7.5 20z" />
<glyph unicode="&#xd2;" horiz-adv-x="1384" d="M170 703q0 143 9.5 246t32.5 187.5t61 138.5t97 91t137.5 52.5t185.5 15.5t185.5 -15.5t137.5 -52.5t96.5 -91t61 -138.5t32.5 -187.5t9 -246t-9 -245t-32.5 -185.5t-61 -136t-97 -88t-137 -50t-185.5 -14.5q-129 0 -217 23t-149 71t-94.5 135.5t-48 203t-14.5 286.5z M384 703q0 -133 8.5 -220.5t28 -151t56.5 -97t88 -48t128 -14.5t128 15t87.5 48t55.5 96.5t27.5 150.5t8.5 221t-8.5 222t-27.5 153.5t-55.5 100.5t-87.5 51t-128 16t-128 -16t-88 -51t-56.5 -100.5t-28 -154t-8.5 -221.5zM413 1659l67 113q7 13 19 15.5t24 -5.5l310 -196 q25 -14 11 -44l-31 -56q-15 -24 -44 -10l-345 140q-28 13 -11 43z" />
<glyph unicode="&#xd3;" horiz-adv-x="1384" d="M170 703q0 143 9.5 246t32.5 187.5t61 138.5t97 91t137.5 52.5t185.5 15.5t185.5 -15.5t137.5 -52.5t96.5 -91t61 -138.5t32.5 -187.5t9 -246t-9 -245t-32.5 -185.5t-61 -136t-97 -88t-137 -50t-185.5 -14.5q-129 0 -217 23t-149 71t-94.5 135.5t-48 203t-14.5 286.5z M384 703q0 -133 8.5 -220.5t28 -151t56.5 -97t88 -48t128 -14.5t128 15t87.5 48t55.5 96.5t27.5 150.5t8.5 221t-8.5 222t-27.5 153.5t-55.5 100.5t-87.5 51t-128 16t-128 -16t-88 -51t-56.5 -100.5t-28 -154t-8.5 -221.5zM529 1542q-14 30 11 44l311 196q12 8 23.5 5.5 t18.5 -15.5l68 -113q17 -30 -11 -43l-345 -140q-29 -14 -44 10z" />
<glyph unicode="&#xd4;" horiz-adv-x="1384" d="M170 703q0 143 9.5 246t32.5 187.5t61 138.5t97 91t137.5 52.5t185.5 15.5t185.5 -15.5t137.5 -52.5t96.5 -91t61 -138.5t32.5 -187.5t9 -246t-9 -245t-32.5 -185.5t-61 -136t-97 -88t-137 -50t-185.5 -14.5q-129 0 -217 23t-149 71t-94.5 135.5t-48 203t-14.5 286.5z M375 1570.5q3 13.5 13 20.5l283 191q26 17 51 0l275 -191q12 -7 14.5 -20.5t-4.5 -23.5l-32 -58q-14 -24 -42 -10l-237 118l-244 -118q-10 -6 -23 -4t-19 14l-32 58q-6 10 -3 23.5zM384 703q0 -133 8.5 -220.5t28 -151t56.5 -97t88 -48t128 -14.5t128 15t87.5 48t55.5 96.5 t27.5 150.5t8.5 221t-8.5 222t-27.5 153.5t-55.5 100.5t-87.5 51t-128 16t-128 -16t-88 -51t-56.5 -100.5t-28 -154t-8.5 -221.5z" />
<glyph unicode="&#xd5;" horiz-adv-x="1384" d="M170 703q0 143 9.5 246t32.5 187.5t61 138.5t97 91t137.5 52.5t185.5 15.5t185.5 -15.5t137.5 -52.5t96.5 -91t61 -138.5t32.5 -187.5t9 -246t-9 -245t-32.5 -185.5t-61 -136t-97 -88t-137 -50t-185.5 -14.5q-129 0 -217 23t-149 71t-94.5 135.5t-48 203t-14.5 286.5z M358 1547q12 106 64.5 174.5t150.5 64.5q53 -2 94 -22.5t61 -43.5t44 -42t49 -19q31 0 46 22.5t26 71.5q4 16 13 24t28 6l57 -9q12 -2 20.5 -10t7.5 -20q-12 -106 -64.5 -175t-149.5 -65q-44 2 -78.5 15.5t-55.5 32t-38 37t-35.5 31t-39.5 12.5q-31 0 -47 -22t-27 -72 q-5 -34 -40 -30l-58 9q-12 2 -20.5 10t-7.5 20zM384 703q0 -133 8.5 -220.5t28 -151t56.5 -97t88 -48t128 -14.5t128 15t87.5 48t55.5 96.5t27.5 150.5t8.5 221t-8.5 222t-27.5 153.5t-55.5 100.5t-87.5 51t-128 16t-128 -16t-88 -51t-56.5 -100.5t-28 -154t-8.5 -221.5z " />
<glyph unicode="&#xd6;" horiz-adv-x="1384" d="M170 703q0 143 9.5 246t32.5 187.5t61 138.5t97 91t137.5 52.5t185.5 15.5t185.5 -15.5t137.5 -52.5t96.5 -91t61 -138.5t32.5 -187.5t9 -246t-9 -245t-32.5 -185.5t-61 -136t-97 -88t-137 -50t-185.5 -14.5q-129 0 -217 23t-149 71t-94.5 135.5t-48 203t-14.5 286.5z M383 1571v123q0 47 47 47h123q47 0 47 -47v-123q0 -48 -47 -48h-123q-47 0 -47 48zM384 703q0 -133 8.5 -220.5t28 -151t56.5 -97t88 -48t128 -14.5t128 15t87.5 48t55.5 96.5t27.5 150.5t8.5 221t-8.5 222t-27.5 153.5t-55.5 100.5t-87.5 51t-128 16t-128 -16t-88 -51 t-56.5 -100.5t-28 -154t-8.5 -221.5zM788 1571v123q0 47 47 47h123q47 0 47 -47v-123q0 -48 -47 -48h-123q-47 0 -47 48z" />
<glyph unicode="&#xd7;" horiz-adv-x="1016" d="M127 446.5q0 12.5 10 22.5l230 230l-232 234q-22 22 0 44l101 101q8 10 21 10t23 -10l232 -232l230 230q10 10 23 10t23 -10l91 -91q10 -10 10 -23t-10 -23l-230 -230l232 -232q10 -10 10 -22.5t-10 -22.5l-103 -100q-8 -10 -21 -10t-23 10l-231 232l-229 -230 q-10 -10 -23 -10t-23 10l-91 90q-10 10 -10 22.5z" />
<glyph unicode="&#xd8;" horiz-adv-x="1383" d="M167 -39.5q-4 13.5 3 25.5l93 162q-51 81 -72.5 214t-21.5 341q0 143 9.5 246t32.5 187.5t61 138.5t97 91t137.5 52.5t185.5 15.5q172 0 278 -54l74 128q12 24 43 12l112 -42q12 -4 15.5 -17.5t-3.5 -25.5l-96 -168q54 -83 76 -218.5t22 -345.5q0 -143 -9 -245 t-32.5 -185.5t-60.5 -136t-96.5 -88t-137 -50t-185.5 -14.5q-181 0 -284 52l-71 -126q-15 -26 -44 -12l-110 45q-12 4 -16 17.5zM383 703q0 -206 23 -306l462 805q-59 44 -176 44q-77 0 -128 -16t-88 -51t-56.5 -100.5t-28 -154t-8.5 -221.5zM510 214q58 -42 182 -42 q77 0 128 15t87.5 48t55.5 96.5t27.5 150.5t8.5 221q0 215 -25 316z" />
<glyph unicode="&#xd9;" horiz-adv-x="1376" d="M173 659v727q0 13 9.5 22.5t22.5 9.5h149q13 0 22.5 -9.5t9.5 -22.5v-727q0 -93 4 -156.5t16 -121t32.5 -92.5t54.5 -61.5t81.5 -37t113.5 -10.5q79 0 132.5 17.5t87.5 50t52 94t24.5 133.5t6.5 184v727q0 13 9 22.5t22 9.5h150q13 0 22.5 -9.5t9.5 -22.5v-727 q0 -122 -8.5 -211.5t-30 -167.5t-58.5 -129.5t-94 -88.5t-137 -53.5t-188 -16.5t-187.5 16.5t-137 53.5t-94.5 88.5t-58 130t-29.5 167t-8.5 211.5zM441 1660l68 114q15 28 42 9l311 -195q25 -14 11 -44l-32 -57q-15 -23 -44 -9l-345 140q-28 13 -11 42z" />
<glyph unicode="&#xda;" horiz-adv-x="1376" d="M173 659v727q0 13 9.5 22.5t22.5 9.5h149q13 0 22.5 -9.5t9.5 -22.5v-727q0 -93 4 -156.5t16 -121t32.5 -92.5t54.5 -61.5t81.5 -37t113.5 -10.5q79 0 132.5 17.5t87.5 50t52 94t24.5 133.5t6.5 184v727q0 13 9 22.5t22 9.5h150q13 0 22.5 -9.5t9.5 -22.5v-727 q0 -122 -8.5 -211.5t-30 -167.5t-58.5 -129.5t-94 -88.5t-137 -53.5t-188 -16.5t-187.5 16.5t-137 53.5t-94.5 88.5t-58 130t-29.5 167t-8.5 211.5zM540 1544q-14 30 11 44l311 195q27 19 42 -9l68 -114q17 -29 -11 -42l-345 -140q-29 -14 -44 9z" />
<glyph unicode="&#xdb;" horiz-adv-x="1376" d="M173 659v727q0 13 9.5 22.5t22.5 9.5h149q13 0 22.5 -9.5t9.5 -22.5v-727q0 -93 4 -156.5t16 -121t32.5 -92.5t54.5 -61.5t81.5 -37t113.5 -10.5q79 0 132.5 17.5t87.5 50t52 94t24.5 133.5t6.5 184v727q0 13 9 22.5t22 9.5h150q13 0 22.5 -9.5t9.5 -22.5v-727 q0 -122 -8.5 -211.5t-30 -167.5t-58.5 -129.5t-94 -88.5t-137 -53.5t-188 -16.5t-187.5 16.5t-137 53.5t-94.5 88.5t-58 130t-29.5 167t-8.5 211.5zM370 1572.5q3 13.5 13 20.5l283 190q26 17 51 0l275 -190q12 -7 14.5 -20.5t-4.5 -23.5l-32 -59q-13 -23 -42 -9l-236 118 l-245 -118q-10 -7 -23 -4.5t-19 13.5l-32 59q-6 10 -3 23.5z" />
<glyph unicode="&#xdc;" horiz-adv-x="1376" d="M173 659v727q0 13 9.5 22.5t22.5 9.5h149q13 0 22.5 -9.5t9.5 -22.5v-727q0 -93 4 -156.5t16 -121t32.5 -92.5t54.5 -61.5t81.5 -37t113.5 -10.5q79 0 132.5 17.5t87.5 50t52 94t24.5 133.5t6.5 184v727q0 13 9 22.5t22 9.5h150q13 0 22.5 -9.5t9.5 -22.5v-727 q0 -122 -8.5 -211.5t-30 -167.5t-58.5 -129.5t-94 -88.5t-137 -53.5t-188 -16.5t-187.5 16.5t-137 53.5t-94.5 88.5t-58 130t-29.5 167t-8.5 211.5zM377 1572v123q0 47 47 47h123q47 0 47 -47v-123q0 -47 -47 -47h-123q-47 0 -47 47zM781 1572v123q0 47 48 47h123 q47 0 47 -47v-123q0 -47 -47 -47h-123q-48 0 -48 47z" />
<glyph unicode="&#xdd;" horiz-adv-x="1257" d="M96 1320q-12 24 13 40l143 67q13 6 25 1t18 -18l343 -668l337 668q13 28 43 17l130 -61q27 -16 13 -41l-422 -826v-467q0 -13 -9.5 -22.5t-22.5 -9.5h-149q-13 0 -22.5 9.5t-9.5 22.5v464zM517 1542q-14 30 11 44l310 196q12 8 24 5.5t19 -15.5l67 -113q17 -30 -11 -43 l-345 -140q-29 -14 -44 10z" />
<glyph unicode="&#xde;" horiz-adv-x="1246" d="M189 32v1354q0 13 9.5 22.5t22.5 9.5h149q13 0 22.5 -9.5t9.5 -22.5v-228h283q107 0 179.5 -21.5t124 -73t75 -139t23.5 -218.5t-23.5 -217.5t-75.5 -137t-124 -71t-179 -20.5h-283v-228q0 -13 -9.5 -22.5t-22.5 -9.5h-149q-13 0 -22.5 9.5t-9.5 22.5zM402 447h283 q106 0 147.5 55.5t41.5 203.5q0 149 -41.5 206.5t-147.5 57.5h-283v-523z" />
<glyph unicode="&#xdf;" horiz-adv-x="1254" d="M176 32v1217q0 191 103.5 262.5t349.5 71.5q82 0 144 -11t117 -39t90.5 -75t56 -121.5t20.5 -175.5q0 -113 -29.5 -198t-83.5 -122q86 -31 131 -129.5t45 -256.5q0 -136 -29.5 -227.5t-89 -140.5t-133 -68t-176.5 -19h-97q-13 0 -22 9.5t-9 22.5v118q0 13 9 22t22 9h97 q109 0 164 60t55 214q0 150 -52 211t-197 65h-65q-13 0 -22 9t-9 22v119q0 13 9 22t22 9h60q106 4 149 56.5t43 194.5q0 71 -15 119t-45.5 74t-68 36t-91.5 10q-141 0 -194.5 -28.5t-53.5 -124.5v-1217q0 -13 -9 -22.5t-22 -9.5h-142q-13 0 -22.5 9.5t-9.5 22.5z" />
<glyph unicode="&#xe0;" horiz-adv-x="1205" d="M134 343q0 194 96 272t290 78q187 0 255 -68v101q0 125 -55.5 168t-180.5 43q-101 0 -259 -22q-13 -1 -22.5 6.5t-11.5 20.5l-14 118q-4 27 26 35q123 24 293 24q230 0 329.5 -79t99.5 -263v-224q0 -172 19 -211q11 -108 112 -159q30 -14 17 -43l-54 -123 q-15 -26 -41 -12q-57 23 -99 60t-72 100q-86 -173 -334 -173q-101 0 -171 16t-122 55.5t-76.5 108t-24.5 171.5zM331 343q0 -58 14 -94.5t44.5 -53t61.5 -21.5t83 -5q114 2 173.5 55.5t59.5 183.5q0 64 -59 86.5t-174 22.5q-51 0 -82.5 -5.5t-62 -22t-44.5 -53t-14 -93.5z M353 1430.5q-1 11.5 9 22.5l89 100q21 23 44 0l241 -245q23 -21 3 -46l-41 -51q-17 -21 -46 -1l-287 200q-11 9 -12 20.5z" />
<glyph unicode="&#xe1;" horiz-adv-x="1205" d="M134 343q0 194 96 272t290 78q187 0 255 -68v101q0 125 -55.5 168t-180.5 43q-101 0 -259 -22q-13 -1 -22.5 6.5t-11.5 20.5l-14 118q-4 27 26 35q123 24 293 24q230 0 329.5 -79t99.5 -263v-224q0 -172 19 -211q11 -108 112 -159q30 -14 17 -43l-54 -123 q-15 -26 -41 -12q-57 23 -99 60t-72 100q-86 -173 -334 -173q-101 0 -171 16t-122 55.5t-76.5 108t-24.5 171.5zM331 343q0 -58 14 -94.5t44.5 -53t61.5 -21.5t83 -5q114 2 173.5 55.5t59.5 183.5q0 64 -59 86.5t-174 22.5q-51 0 -82.5 -5.5t-62 -22t-44.5 -53t-14 -93.5z M447 1262q-21 23 2 46l243 245q21 23 42 0l88 -100q10 -11 10 -23t-11 -20l-289 -200q-26 -20 -44 1z" />
<glyph unicode="&#xe2;" horiz-adv-x="1205" d="M134 343q0 194 96 272t290 78q187 0 255 -68v101q0 125 -55.5 168t-180.5 43q-101 0 -259 -22q-13 -1 -22.5 6.5t-11.5 20.5l-14 118q-4 27 26 35q123 24 293 24q230 0 329.5 -79t99.5 -263v-224q0 -172 19 -211q11 -108 112 -159q30 -14 17 -43l-54 -123 q-15 -26 -41 -12q-57 23 -99 60t-72 100q-86 -173 -334 -173q-101 0 -171 16t-122 55.5t-76.5 108t-24.5 171.5zM288 1274q-15 24 7 46l267 232q23 21 46 0l260 -232q22 -22 6 -46l-42 -59q-7 -12 -20 -13.5t-23 6.5l-205 142l-211 -142q-10 -8 -22.5 -6.5t-19.5 13.5z M331 343q0 -58 14 -94.5t44.5 -53t61.5 -21.5t83 -5q114 2 173.5 55.5t59.5 183.5q0 64 -59 86.5t-174 22.5q-51 0 -82.5 -5.5t-62 -22t-44.5 -53t-14 -93.5z" />
<glyph unicode="&#xe3;" horiz-adv-x="1205" d="M134 343q0 194 96 272t290 78q187 0 255 -68v101q0 125 -55.5 168t-180.5 43q-101 0 -259 -22q-13 -1 -22.5 6.5t-11.5 20.5l-14 118q-4 27 26 35q123 24 293 24q230 0 329.5 -79t99.5 -263v-224q0 -172 19 -211q11 -108 112 -159q30 -14 17 -43l-54 -123 q-15 -26 -41 -12q-57 23 -99 60t-72 100q-86 -173 -334 -173q-101 0 -171 16t-122 55.5t-76.5 108t-24.5 171.5zM236 1278q6 49 21 93.5t40.5 82.5t66 60t90.5 20q46 -2 81 -19t56 -40t37.5 -46t34.5 -39t38 -16q30 0 45.5 28.5t28.5 83.5q6 34 39 28l62 -8q12 -3 20.5 -11 t7.5 -19q-6 -49 -21 -93.5t-40 -83t-66 -60.5t-92 -20q-46 2 -81 19t-56 40.5t-37.5 46.5t-34.5 39t-38 16q-29 0 -45 -29t-28 -83q-3 -10 -6.5 -16t-12 -10t-21.5 -2l-60 8q-12 3 -21 11t-8 19zM331 343q0 -58 14 -94.5t44.5 -53t61.5 -21.5t83 -5q114 2 173.5 55.5 t59.5 183.5q0 64 -59 86.5t-174 22.5q-51 0 -82.5 -5.5t-62 -22t-44.5 -53t-14 -93.5z" />
<glyph unicode="&#xe4;" horiz-adv-x="1205" d="M134 343q0 194 96 272t290 78q187 0 255 -68v101q0 125 -55.5 168t-180.5 43q-101 0 -259 -22q-13 -1 -22.5 6.5t-11.5 20.5l-14 118q-4 27 26 35q123 24 293 24q230 0 329.5 -79t99.5 -263v-224q0 -172 19 -211q11 -108 112 -159q30 -14 17 -43l-54 -123 q-15 -26 -41 -12q-57 23 -99 60t-72 100q-86 -173 -334 -173q-101 0 -171 16t-122 55.5t-76.5 108t-24.5 171.5zM263 1334v123q0 47 47 47h123q47 0 47 -47v-123q0 -47 -47 -47h-123q-47 0 -47 47zM331 343q0 -58 14 -94.5t44.5 -53t61.5 -21.5t83 -5q114 2 173.5 55.5 t59.5 183.5q0 64 -59 86.5t-174 22.5q-51 0 -82.5 -5.5t-62 -22t-44.5 -53t-14 -93.5zM668 1334v123q0 47 47 47h123q47 0 47 -47v-123q0 -47 -47 -47h-123q-47 0 -47 47z" />
<glyph unicode="&#xe5;" horiz-adv-x="1205" d="M134 343q0 194 96 272t290 78q187 0 255 -68v101q0 125 -55.5 168t-180.5 43q-101 0 -259 -22q-13 -1 -22.5 6.5t-11.5 20.5l-14 118q-4 27 26 35q123 24 293 24q230 0 329.5 -79t99.5 -263v-224q0 -172 19 -211q11 -108 112 -159q30 -14 17 -43l-54 -123 q-15 -26 -41 -12q-57 23 -99 60t-72 100q-86 -173 -334 -173q-101 0 -171 16t-122 55.5t-76.5 108t-24.5 171.5zM331 343q0 -58 14 -94.5t44.5 -53t61.5 -21.5t83 -5q114 2 173.5 55.5t59.5 183.5q0 64 -59 86.5t-174 22.5q-51 0 -82.5 -5.5t-62 -22t-44.5 -53t-14 -93.5z M358 1366v20q0 97 55 152.5t153 55.5h20q97 0 152.5 -55.5t55.5 -152.5v-20q0 -98 -55.5 -153t-152.5 -55h-20q-98 0 -153 55t-55 153zM492 1366q0 -34 20 -54t54 -20h20q34 0 54 20t20 54v20q0 34 -20 54t-54 20h-20q-34 0 -54 -20t-20 -54v-20z" />
<glyph unicode="&#xe6;" horiz-adv-x="1789" d="M134 343q0 187 96.5 263t289.5 76q56 0 150.5 -12t104.5 -24q0 86 -3 105q-6 109 -60 147.5t-173 38.5q-101 0 -259 -22q-13 -1 -22.5 6.5t-11.5 20.5l-14 118q-4 27 26 35q108 24 293 24q132 0 217.5 -28t132.5 -94q94 125 314 125q122 0 204 -31t131 -100t69.5 -168 t20.5 -245v-60q0 -13 -9.5 -22t-22.5 -9h-628q2 -160 59 -237t183 -81q14 -2 46 -2q115 0 263 25q13 2 23 -6t12 -21l14 -118q1 -13 -6.5 -22.5t-20.5 -11.5q-174 -26 -331 -26q-266 0 -345 174q-92 -169 -349 -169q-101 0 -171 16t-122 55.5t-76.5 108t-24.5 171.5z M331 343q0 -58 14 -94.5t44.5 -53t61.5 -21.5t83 -5q114 2 173.5 55.5t59.5 183.5q0 16 -4 47.5t-10 36.5q-17 15 -219 15q-50 0 -82.5 -5.5t-62.5 -21.5t-44 -50t-14 -87zM980 668h452q-4 150 -49 211.5t-168 61.5q-127 0 -180 -63.5t-55 -209.5z" />
<glyph unicode="&#xe7;" horiz-adv-x="1012" d="M150 558q0 147 22 249.5t73.5 174.5t138.5 106t215 34q178 0 275 -19q13 -2 20.5 -12t6.5 -23l-12 -118q-1 -13 -11.5 -21t-23.5 -6q-131 18 -255 18q-76 0 -123.5 -20t-74.5 -69t-37 -117t-10 -177t10 -177.5t37 -117.5t74.5 -69.5t123.5 -20.5q95 0 255 18 q13 2 23.5 -6t11.5 -21l12 -118q1 -13 -6.5 -23t-20.5 -12q-81 -14 -220 -17l-29 -87q119 -4 170 -47t51 -134q0 -98 -55.5 -141.5t-188.5 -41.5q-38 0 -94 8.5t-81 19.5q-27 12 -19 38l11 46q10 32 39 25q84 -19 136 -19q51 0 72.5 13t21.5 52t-26.5 51t-91.5 12h-78 q-24 0 -34 13.5t-4 36.5l69 156q-206 18 -289.5 152.5t-83.5 410.5z" />
<glyph unicode="&#xe8;" horiz-adv-x="1165" d="M150 551q0 299 102 435t342 136q122 0 204.5 -33t132.5 -103.5t71.5 -171.5t21.5 -247v-60q0 -13 -9.5 -22t-22.5 -9h-636q2 -153 61 -228t185 -79q14 -2 45 -2q120 0 268 25q13 2 23 -6t12 -21l14 -118q1 -13 -6.5 -22.5t-20.5 -11.5q-174 -26 -335 -26 q-245 0 -348.5 133t-103.5 431zM356 657h460q-4 157 -50.5 220.5t-171.5 63.5q-128 0 -182 -65.5t-56 -218.5zM373 1453l89 100q21 23 44 0l241 -245q23 -21 3 -46l-41 -51q-17 -21 -46 -1l-286 200q-26 21 -4 43z" />
<glyph unicode="&#xe9;" horiz-adv-x="1165" d="M150 551q0 299 102 435t342 136q122 0 204.5 -33t132.5 -103.5t71.5 -171.5t21.5 -247v-60q0 -13 -9.5 -22t-22.5 -9h-636q2 -153 61 -228t185 -79q14 -2 45 -2q120 0 268 25q13 2 23 -6t12 -21l14 -118q1 -13 -6.5 -22.5t-20.5 -11.5q-174 -26 -335 -26 q-245 0 -348.5 133t-103.5 431zM356 657h460q-4 157 -50.5 220.5t-171.5 63.5q-128 0 -182 -65.5t-56 -218.5zM436 1262q-21 23 2 46l243 245q21 23 42 0l88 -100q10 -11 10 -23t-11 -20l-289 -200q-26 -20 -44 1z" />
<glyph unicode="&#xea;" horiz-adv-x="1165" d="M150 551q0 299 102 435t342 136q122 0 204.5 -33t132.5 -103.5t71.5 -171.5t21.5 -247v-60q0 -13 -9.5 -22t-22.5 -9h-636q2 -153 61 -228t185 -79q14 -2 45 -2q120 0 268 25q13 2 23 -6t12 -21l14 -118q1 -13 -6.5 -22.5t-20.5 -11.5q-174 -26 -335 -26 q-245 0 -348.5 133t-103.5 431zM296 1274q-16 24 6 46l268 232q23 21 46 0l260 -232q22 -22 6 -46l-42 -59q-7 -12 -20 -13.5t-23 6.5l-205 142l-211 -142q-10 -8 -22.5 -6.5t-19.5 13.5zM356 657h460q-4 157 -50.5 220.5t-171.5 63.5q-128 0 -182 -65.5t-56 -218.5z" />
<glyph unicode="&#xeb;" horiz-adv-x="1165" d="M150 551q0 299 102 435t342 136q122 0 204.5 -33t132.5 -103.5t71.5 -171.5t21.5 -247v-60q0 -13 -9.5 -22t-22.5 -9h-636q2 -153 61 -228t185 -79q14 -2 45 -2q120 0 268 25q13 2 23 -6t12 -21l14 -118q1 -13 -6.5 -22.5t-20.5 -11.5q-174 -26 -335 -26 q-245 0 -348.5 133t-103.5 431zM279 1334v123q0 47 47 47h123q47 0 47 -47v-123q0 -47 -47 -47h-123q-47 0 -47 47zM356 657h460q-4 157 -50.5 220.5t-171.5 63.5q-128 0 -182 -65.5t-56 -218.5zM684 1334v123q0 47 47 47h123q47 0 47 -47v-123q0 -47 -47 -47h-123 q-47 0 -47 47z" />
<glyph unicode="&#xec;" horiz-adv-x="535" d="M-18 1430.5q-1 11.5 9 22.5l88 100q21 23 44 0l241 -245q23 -21 3 -46l-41 -51q-17 -21 -46 -1l-286 200q-11 9 -12 20.5zM165 32v1047q0 13 9.5 22.5t22.5 9.5h142q13 0 22 -9.5t9 -22.5v-1047q0 -13 -9 -22.5t-22 -9.5h-142q-13 0 -22.5 9.5t-9.5 22.5z" />
<glyph unicode="&#xed;" horiz-adv-x="535" d="M165 32v1047q0 13 9.5 22.5t22.5 9.5h142q13 0 22 -9.5t9 -22.5v-1047q0 -13 -9 -22.5t-22 -9.5h-142q-13 0 -22.5 9.5t-9.5 22.5zM180 1262q-22 23 1 46l243 245q21 23 42 0l89 -100q23 -23 -2 -43l-288 -200q-26 -20 -44 1z" />
<glyph unicode="&#xee;" horiz-adv-x="535" d="M-22 1274q-16 24 6 46l268 232q23 21 46 0l260 -232q22 -22 6 -46l-43 -59q-7 -12 -19.5 -13.5t-22.5 6.5l-205 142l-211 -142q-10 -8 -23 -6.5t-20 13.5zM165 32v1047q0 13 9.5 22.5t22.5 9.5h142q13 0 22 -9.5t9 -22.5v-1047q0 -13 -9 -22.5t-22 -9.5h-142 q-13 0 -22.5 9.5t-9.5 22.5z" />
<glyph unicode="&#xef;" horiz-adv-x="535" d="M-47 1334v123q0 47 47 47h123q47 0 47 -47v-123q0 -47 -47 -47h-123q-47 0 -47 47zM165 32v1047q0 13 9.5 22.5t22.5 9.5h142q13 0 22 -9.5t9 -22.5v-1047q0 -13 -9 -22.5t-22 -9.5h-142q-13 0 -22.5 9.5t-9.5 22.5zM358 1334v123q0 47 47 47h123q47 0 47 -47v-123 q0 -47 -47 -47h-123q-47 0 -47 47z" />
<glyph unicode="&#xf0;" d="M150 542q0 144 20.5 242.5t71 169.5t137 103.5t215.5 32.5q98 0 176 -27q-49 122 -129 213l-268 -87q-12 -4 -23.5 1.5t-15.5 17.5l-30 90q-4 13 1.5 24.5t17.5 15.5l194 63q-45 39 -111 86q-13 9 -15 21.5t9 22.5l98 46q26 18 52 3q84 -53 154 -120l205 68q12 4 23.5 -2 t15.5 -18l30 -90q5 -12 -1 -24t-19 -16l-142 -47q224 -306 224 -789q0 -144 -21 -243t-71.5 -170t-137.5 -104t-216 -33t-215.5 33t-137 104t-71 170t-20.5 243zM354 542q0 -218 47.5 -293.5t190.5 -75.5q145 0 194 75.5t49 293.5q0 217 -48 292t-193 75t-192.5 -74.5 t-47.5 -292.5z" />
<glyph unicode="&#xf1;" horiz-adv-x="1268" d="M101 963q-6 13 1 25l56 121q13 23 40 13q28 -13 47.5 -23.5t44 -29t44.5 -45t35 -61.5q87 159 326 159q219 0 315.5 -118.5t96.5 -393.5v-578q0 -13 -9 -22.5t-22 -9.5h-142q-13 0 -22 9.5t-9 22.5v570q0 188 -48.5 263.5t-177.5 75.5q-128 0 -175.5 -75t-47.5 -264v-570 q0 -13 -9.5 -22.5t-22.5 -9.5h-142q-13 0 -22 9.5t-9 22.5v576q0 111 -8 163.5t-30 96.5q-28 50 -91 77q-13 5 -19 18zM332 1278q6 49 21 93.5t40.5 82.5t66 60t90.5 20q46 -2 81 -19t56 -40t37.5 -46t34.5 -39t38 -16q30 0 45.5 28.5t28.5 83.5q6 34 40 28l61 -8 q12 -3 20.5 -11t7.5 -19q-6 -49 -21 -93.5t-40 -83t-66 -60.5t-92 -20q-46 2 -81 19t-56 40.5t-37.5 46.5t-34.5 39t-38 16q-29 0 -44.5 -28.5t-27.5 -83.5q-10 -34 -41 -28l-60 8q-12 3 -21 11t-8 19z" />
<glyph unicode="&#xf2;" d="M150 558q0 150 20.5 251.5t71 174t136.5 105.5t216 33t216 -33t137 -105t72 -174t21 -252t-21 -252t-72 -174.5t-137.5 -106t-215.5 -33.5t-215.5 33t-137 106t-71 175t-20.5 252zM354 558q0 -225 48 -305t190 -80q145 0 194 80t49 305q0 224 -48.5 303.5t-192.5 79.5 t-192 -79t-48 -304zM380 1430.5q-1 11.5 9 22.5l88 100q21 23 44 0l241 -245q23 -22 4 -46l-41 -51q-17 -21 -46 -1l-287 200q-11 9 -12 20.5z" />
<glyph unicode="&#xf3;" d="M150 558q0 150 20.5 251.5t71 174t136.5 105.5t216 33t216 -33t137 -105t72 -174t21 -252t-21 -252t-72 -174.5t-137.5 -106t-215.5 -33.5t-215.5 33t-137 106t-71 175t-20.5 252zM354 558q0 -225 48 -305t190 -80q145 0 194 80t49 305q0 224 -48.5 303.5t-192.5 79.5 t-192 -79t-48 -304zM449 1262q-21 23 2 46l242 245q21 23 43 0l88 -100q23 -23 -2 -43l-288 -200q-26 -20 -44 1z" />
<glyph unicode="&#xf4;" d="M150 558q0 150 20.5 251.5t71 174t136.5 105.5t216 33t216 -33t137 -105t72 -174t21 -252t-21 -252t-72 -174.5t-137.5 -106t-215.5 -33.5t-215.5 33t-137 106t-71 175t-20.5 252zM299 1274q-15 24 7 46l267 232q23 21 46 0l260 -232q22 -22 6 -46l-42 -59 q-7 -12 -20 -13.5t-23 6.5l-205 142l-211 -142q-10 -8 -22.5 -6.5t-19.5 13.5zM354 558q0 -225 48 -305t190 -80q145 0 194 80t49 305q0 224 -48.5 303.5t-192.5 79.5t-192 -79t-48 -304z" />
<glyph unicode="&#xf5;" d="M150 558q0 150 20.5 251.5t71 174t136.5 105.5t216 33t216 -33t137 -105t72 -174t21 -252t-21 -252t-72 -174.5t-137.5 -106t-215.5 -33.5t-215.5 33t-137 106t-71 175t-20.5 252zM263 1278q6 49 21 93.5t40 82.5t65.5 60t90.5 20q46 -2 81.5 -19t56 -40t37 -46t35 -39 t38.5 -16q30 0 45.5 28.5t28.5 83.5q6 34 39 28l62 -8q12 -3 20.5 -11t7.5 -19q-6 -49 -21 -93.5t-40 -83t-66 -60.5t-92 -20q-46 2 -81 19t-56 40.5t-37.5 46.5t-34.5 39t-38 16q-29 0 -45 -29t-28 -83q-10 -34 -41 -28l-60 8q-12 3 -20.5 11t-7.5 19zM354 558 q0 -225 48 -305t190 -80q145 0 194 80t49 305q0 224 -48.5 303.5t-192.5 79.5t-192 -79t-48 -304z" />
<glyph unicode="&#xf6;" d="M150 558q0 150 20.5 251.5t71 174t136.5 105.5t216 33t216 -33t137 -105t72 -174t21 -252t-21 -252t-72 -174.5t-137.5 -106t-215.5 -33.5t-215.5 33t-137 106t-71 175t-20.5 252zM287 1334v123q0 47 47 47h123q47 0 47 -47v-123q0 -47 -47 -47h-123q-47 0 -47 47z M354 558q0 -225 48 -305t190 -80q145 0 194 80t49 305q0 224 -48.5 303.5t-192.5 79.5t-192 -79t-48 -304zM692 1334v123q0 47 47 47h123q47 0 47 -47v-123q0 -47 -47 -47h-123q-47 0 -47 47z" />
<glyph unicode="&#xf7;" horiz-adv-x="1038" d="M126 651v124q0 13 9.5 22.5t22.5 9.5h723q13 0 22 -9.5t9 -22.5v-124q0 -13 -9 -22.5t-22 -9.5h-723q-13 0 -22.5 9.5t-9.5 22.5zM391 315v139q0 21 15.5 36.5t36.5 15.5h138q21 0 36 -15.5t15 -36.5v-139q0 -21 -15 -35.5t-36 -14.5h-138q-21 0 -36.5 14.5t-15.5 35.5z M391 974v138q0 21 15.5 36.5t36.5 15.5h138q21 0 36 -15.5t15 -36.5v-138q0 -21 -15 -36t-36 -15h-138q-21 0 -36.5 15t-15.5 36z" />
<glyph unicode="&#xf8;" d="M118 -32.5q-2 12.5 5 24.5l104 158q-77 126 -77 408q0 150 20.5 251.5t71 174t136.5 105.5t216 33q152 0 243 -48l80 123q7 12 19.5 14.5t22.5 -4.5l104 -41q11 -7 14 -20t-4 -24l-109 -166q76 -129 76 -398q0 -150 -21 -252t-72 -174.5t-137.5 -106t-215.5 -33.5 q-148 0 -233 44l-82 -121q-7 -11 -19.5 -14t-23.5 4l-104 43q-12 7 -14 19.5zM354 558q0 -137 15 -194l360 548q-50 29 -135 29q-144 0 -192 -79t-48 -304zM468 200q43 -27 124 -27q145 0 194 80t49 305q0 122 -16 176z" />
<glyph unicode="&#xf9;" horiz-adv-x="1249" d="M165 504v575q0 13 9.5 22.5t22.5 9.5h142q13 0 22 -9.5t9 -22.5v-567q0 -99 8.5 -158.5t33 -103t68 -60.5t114.5 -17q130 0 177.5 72t47.5 267v567q0 13 9.5 22.5t22.5 9.5h141q13 0 22.5 -9.5t9.5 -22.5v-569q0 -116 9.5 -170.5t34.5 -96.5q29 -48 85 -70 q12 -5 18 -17.5t0 -24.5l-56 -120q-13 -23 -41 -13q-27 12 -47 23.5t-44 30t-44 45.5t-36 62q-89 -167 -326 -167q-152 0 -240.5 48.5t-130 159.5t-41.5 304zM355 1430.5q-1 11.5 9 22.5l88 100q21 23 44 0l241 -245q23 -21 3 -46l-41 -51q-17 -20 -45 -1l-287 200 q-11 9 -12 20.5z" />
<glyph unicode="&#xfa;" horiz-adv-x="1249" d="M165 504v575q0 13 9.5 22.5t22.5 9.5h142q13 0 22 -9.5t9 -22.5v-567q0 -99 8.5 -158.5t33 -103t68 -60.5t114.5 -17q130 0 177.5 72t47.5 267v567q0 13 9.5 22.5t22.5 9.5h141q13 0 22.5 -9.5t9.5 -22.5v-569q0 -116 9.5 -170.5t34.5 -96.5q29 -48 85 -70 q12 -5 18 -17.5t0 -24.5l-56 -120q-13 -23 -41 -13q-27 12 -47 23.5t-44 30t-44 45.5t-36 62q-89 -167 -326 -167q-152 0 -240.5 48.5t-130 159.5t-41.5 304zM484 1262q-22 23 1 46l243 245q21 23 42 0l89 -100q23 -23 -2 -43l-288 -200q-26 -20 -44 1z" />
<glyph unicode="&#xfb;" horiz-adv-x="1249" d="M165 504v575q0 13 9.5 22.5t22.5 9.5h142q13 0 22 -9.5t9 -22.5v-567q0 -99 8.5 -158.5t33 -103t68 -60.5t114.5 -17q130 0 177.5 72t47.5 267v567q0 13 9.5 22.5t22.5 9.5h141q13 0 22.5 -9.5t9.5 -22.5v-569q0 -116 9.5 -170.5t34.5 -96.5q29 -48 85 -70 q12 -5 18 -17.5t0 -24.5l-56 -120q-13 -23 -41 -13q-27 12 -47 23.5t-44 30t-44 45.5t-36 62q-89 -167 -326 -167q-152 0 -240.5 48.5t-130 159.5t-41.5 304zM309 1274q-16 24 6 46l268 232q23 21 46 0l260 -232q22 -22 6 -46l-43 -59q-7 -12 -19.5 -13.5t-22.5 6.5 l-205 142l-211 -142q-10 -8 -23 -6.5t-20 13.5z" />
<glyph unicode="&#xfc;" horiz-adv-x="1249" d="M165 504v575q0 13 9.5 22.5t22.5 9.5h142q13 0 22 -9.5t9 -22.5v-567q0 -99 8.5 -158.5t33 -103t68 -60.5t114.5 -17q130 0 177.5 72t47.5 267v567q0 13 9.5 22.5t22.5 9.5h141q13 0 22.5 -9.5t9.5 -22.5v-569q0 -116 9.5 -170.5t34.5 -96.5q29 -48 85 -70 q12 -5 18 -17.5t0 -24.5l-56 -120q-13 -23 -41 -13q-27 12 -47 23.5t-44 30t-44 45.5t-36 62q-89 -167 -326 -167q-152 0 -240.5 48.5t-130 159.5t-41.5 304zM290 1334v123q0 47 47 47h123q47 0 47 -47v-123q0 -47 -47 -47h-123q-47 0 -47 47zM695 1334v123q0 47 47 47h123 q47 0 47 -47v-123q0 -47 -47 -47h-123q-47 0 -47 47z" />
<glyph unicode="&#xfd;" horiz-adv-x="1146" d="M98 1041q-4 13 2 24.5t18 13.5l137 40q13 2 25 -3.5t16 -17.5l274 -789l298 789q10 28 43 19l127 -38q14 -2 19 -15t0 -27l-564 -1466q-10 -28 -42 -18l-125 34q-13 4 -18.5 17t-0.5 26l156 409zM468 1262q-22 23 1 46l243 245q22 23 43 0l88 -100q23 -23 -2 -43 l-288 -200q-26 -20 -44 1z" />
<glyph unicode="&#xfe;" horiz-adv-x="1173" d="M176 -433v1977q0 13 9.5 22t22.5 9h142q13 0 22 -9t9 -22v-511q90 86 249 86q98 0 166.5 -22t113 -63.5t70 -112t35 -156t9.5 -207.5t-9.5 -207.5t-35 -156t-70 -112t-113 -63.5t-166.5 -22q-162 0 -249 83v-513q0 -13 -9 -22.5t-22 -9.5h-142q-13 0 -22.5 9.5t-9.5 22.5 zM383 496q0 -62 3.5 -103.5t16 -84.5t35 -68t62 -41t95.5 -16q44 0 77 7t57 19.5t40 37t26 51t15.5 69.5t7 85.5t1.5 105.5t-1.5 105.5t-7 85.5t-15.5 69.5t-26 51t-40 37t-57 19.5t-77 7q-48 0 -81.5 -8t-57 -28.5t-37.5 -46.5t-22 -72t-10.5 -94t-3.5 -123v-65z" />
<glyph unicode="&#xff;" horiz-adv-x="1146" d="M98 1041q-4 13 2 24.5t18 13.5l137 40q13 2 25 -3.5t16 -17.5l274 -789l298 789q10 28 43 19l127 -38q14 -2 19 -15t0 -27l-564 -1466q-10 -28 -42 -18l-125 34q-13 4 -18.5 17t-0.5 26l156 409zM269 1334v123q0 47 48 47h123q47 0 47 -47v-123q0 -47 -47 -47h-123 q-48 0 -48 47zM674 1334v123q0 47 48 47h122q48 0 48 -47v-123q0 -47 -48 -47h-122q-48 0 -48 47z" />
<glyph unicode="&#x152;" horiz-adv-x="1830" d="M169 703q0 143 9.5 246t32.5 187.5t61 138.5t97 91t137.5 52.5t185.5 15.5q133 0 217 -16h756q13 0 22.5 -9.5t9.5 -22.5v-124q0 -13 -9.5 -22.5t-22.5 -9.5h-573v-408h447q13 0 22.5 -9t9.5 -22v-125q0 -13 -9.5 -22t-22.5 -9h-447v-455h573q13 0 22.5 -9.5t9.5 -22.5 v-116q0 -13 -9.5 -22.5t-22.5 -9.5h-753q-87 -16 -220 -16q-129 0 -217 23t-149 71t-94.5 135.5t-48 203t-14.5 286.5zM383 703q0 -133 8.5 -220.5t28 -151t56.5 -97t88 -48t128 -14.5q140 0 187 22v1027q-54 25 -187 25q-77 0 -128 -16t-88 -51t-56.5 -100.5t-28 -154 t-8.5 -221.5z" />
<glyph unicode="&#x153;" horiz-adv-x="1851" d="M150 558q0 150 20.5 251.5t71 174t136.5 105.5t216 33q246 0 347 -131q106 131 338 131q122 0 204.5 -33t132.5 -103.5t71.5 -171.5t21.5 -247v-60q0 -13 -9 -22t-22 -9h-637q2 -153 61 -228t185 -79q14 -2 46 -2q120 0 268 25q13 2 22.5 -6t11.5 -21l14 -118 q2 -13 -5.5 -23t-20.5 -11q-174 -26 -336 -26q-244 0 -348 133q-102 -128 -345 -128q-129 0 -215.5 33t-137 106t-71 175t-20.5 252zM354 558q0 -225 48 -305t190 -80q74 0 119.5 17.5t73.5 63t38.5 115t11.5 182.5v7q0 224 -48.5 303.5t-192.5 79.5t-192 -79t-48 -304z M1041 657h460q-4 157 -50.5 220.5t-171.5 63.5q-128 0 -182 -65.5t-56 -218.5z" />
<glyph unicode="&#x178;" horiz-adv-x="1257" d="M96 1320q-12 24 13 40l143 67q13 6 25 1t18 -18l343 -668l337 668q13 28 43 17l130 -61q27 -16 13 -41l-422 -826v-467q0 -13 -9.5 -22.5t-22.5 -9.5h-149q-13 0 -22.5 9.5t-9.5 22.5v464zM317 1571v123q0 47 47 47h123q47 0 47 -47v-123q0 -48 -47 -48h-123 q-47 0 -47 48zM722 1571v123q0 47 47 47h123q47 0 47 -47v-123q0 -48 -47 -48h-123q-47 0 -47 48z" />
<glyph unicode="&#x2c6;" horiz-adv-x="834" d="M124 1274q-15 24 7 46l268 232q22 21 45 0l260 -232q22 -22 6 -46l-42 -59q-7 -12 -20 -13.5t-23 6.5l-204 142l-211 -142q-10 -8 -23 -6.5t-20 13.5z" />
<glyph unicode="&#x2dc;" horiz-adv-x="883" d="M106 1278q6 49 21 93.5t40 82.5t65.5 60t90.5 20q46 -2 81 -19t56 -40t37.5 -46t34.5 -39t38 -16q30 0 45.5 28.5t28.5 83.5q6 34 40 28l61 -8q12 -3 21 -11t8 -19q-6 -49 -21 -93.5t-40 -83t-66 -60.5t-92 -20q-46 2 -81.5 19t-56 40.5t-37 46.5t-35 39t-38.5 16 q-29 0 -44.5 -28.5t-27.5 -83.5q-10 -34 -41 -28l-60 8q-12 3 -20.5 11t-7.5 19z" />
<glyph unicode="&#x2000;" horiz-adv-x="924" />
<glyph unicode="&#x2001;" horiz-adv-x="1848" />
<glyph unicode="&#x2002;" horiz-adv-x="924" />
<glyph unicode="&#x2003;" horiz-adv-x="1848" />
<glyph unicode="&#x2004;" horiz-adv-x="616" />
<glyph unicode="&#x2005;" horiz-adv-x="462" />
<glyph unicode="&#x2006;" horiz-adv-x="308" />
<glyph unicode="&#x2007;" horiz-adv-x="308" />
<glyph unicode="&#x2008;" horiz-adv-x="231" />
<glyph unicode="&#x2009;" horiz-adv-x="369" />
<glyph unicode="&#x200a;" horiz-adv-x="102" />
<glyph unicode="&#x2010;" horiz-adv-x="786" d="M126 506v118q0 13 9.5 22t22.5 9h471q13 0 22 -9t9 -22v-118q0 -13 -9 -22.5t-22 -9.5h-471q-13 0 -22.5 9.5t-9.5 22.5z" />
<glyph unicode="&#x2011;" horiz-adv-x="786" d="M126 506v118q0 13 9.5 22t22.5 9h471q13 0 22 -9t9 -22v-118q0 -13 -9 -22.5t-22 -9.5h-471q-13 0 -22.5 9.5t-9.5 22.5z" />
<glyph unicode="&#x2012;" horiz-adv-x="786" d="M126 506v118q0 13 9.5 22t22.5 9h471q13 0 22 -9t9 -22v-118q0 -13 -9 -22.5t-22 -9.5h-471q-13 0 -22.5 9.5t-9.5 22.5z" />
<glyph unicode="&#x2013;" horiz-adv-x="1038" d="M126 499v125q0 13 9.5 22t22.5 9h723q13 0 22 -9t9 -22v-125q0 -13 -9 -22t-22 -9h-723q-13 0 -22.5 9t-9.5 22z" />
<glyph unicode="&#x2014;" horiz-adv-x="1578" d="M126 499v125q0 13 9.5 22t22.5 9h1263q13 0 22.5 -9t9.5 -22v-125q0 -13 -9.5 -22t-22.5 -9h-1263q-13 0 -22.5 9t-9.5 22z" />
<glyph unicode="&#x2018;" horiz-adv-x="554" d="M128.5 1251.5q-5.5 13.5 0.5 27.5l147 454q10 31 31 31h88q18 0 27 -9.5t5 -24.5l-101 -460q-6 -32 -35 -32h-138q-19 0 -24.5 13.5z" />
<glyph unicode="&#x2019;" horiz-adv-x="562" d="M128 1270l100 463q2 13 11 22t21 9h150q19 0 24 -13.5t-1 -27.5l-146 -453q-10 -32 -32 -32h-96q-13 0 -23 10t-8 22z" />
<glyph unicode="&#x201a;" horiz-adv-x="554" d="M128 -214l100 463q2 13 11 22t21 9h142q19 0 24 -13.5t-1 -27.5l-146 -453q-10 -32 -32 -32h-88q-13 0 -23 10t-8 22z" />
<glyph unicode="&#x201c;" horiz-adv-x="932" d="M128.5 1251.5q-5.5 13.5 0.5 27.5l147 454q10 31 31 31h88q13 0 23.5 -9.5t8.5 -21.5l-101 -463q-6 -32 -31 -32h-142q-19 0 -24.5 13.5zM506.5 1251.5q-5.5 13.5 0.5 27.5l147 454q10 31 31 31h89q13 0 23 -9.5t8 -21.5l-101 -463q-6 -32 -31 -32h-142q-19 0 -24.5 13.5 z" />
<glyph unicode="&#x201d;" horiz-adv-x="934" d="M128 1270l100 463q2 13 11 22t21 9h142q19 0 24 -13.5t-1 -27.5l-146 -453q-10 -32 -32 -32h-88q-13 0 -23 10t-8 22zM507 1270l101 463q2 13 11 22t21 9h141q19 0 24.5 -13.5t-0.5 -27.5l-146 -453q-10 -32 -32 -32h-88q-13 0 -23.5 10t-8.5 22z" />
<glyph unicode="&#x201e;" horiz-adv-x="924" d="M128 -214l100 463q2 13 11 22t21 9h134q19 0 24 -13.5t-1 -27.5l-146 -453q-10 -32 -32 -32h-80q-13 0 -23 10t-8 22zM498 -214l101 463q5 31 31 31h142q19 0 24.5 -13.5t-0.5 -27.5l-147 -453q-10 -32 -31 -32h-89q-13 0 -23 10t-8 22z" />
<glyph unicode="&#x2022;" horiz-adv-x="816" d="M126 625v70q0 102 72.5 174.5t174.5 72.5h70q101 0 174 -73t73 -174v-70q0 -102 -72.5 -174.5t-174.5 -72.5h-70q-103 0 -175 72t-72 175z" />
<glyph unicode="&#x2026;" horiz-adv-x="1372" d="M126 50v139q0 21 14.5 36.5t35.5 15.5h139q21 0 36.5 -15.5t15.5 -36.5v-139q0 -21 -15.5 -35.5t-36.5 -14.5h-139q-21 0 -35.5 14.5t-14.5 35.5zM566 50v139q0 21 14.5 36.5t35.5 15.5h139q21 0 36.5 -15.5t15.5 -36.5v-139q0 -21 -15.5 -35.5t-36.5 -14.5h-139 q-21 0 -35.5 14.5t-14.5 35.5zM1005 50v139q0 21 15 36.5t36 15.5h138q21 0 36.5 -15.5t15.5 -36.5v-139q0 -21 -15.5 -35.5t-36.5 -14.5h-138q-21 0 -36 14.5t-15 35.5z" />
<glyph unicode="&#x202f;" horiz-adv-x="369" />
<glyph unicode="&#x2039;" horiz-adv-x="790" d="M132 540q-14 14 0 35l382 477q16 21 47 10l85 -22q15 -6 17 -20t-6 -24l-301 -438l301 -438q8 -10 5.5 -26t-16.5 -20l-85 -20q-33 -12 -49 9z" />
<glyph unicode="&#x203a;" horiz-adv-x="790" d="M128 1020q2 14 17 20l85 22q31 11 47 -10l382 -477q14 -21 0 -35l-380 -477q-16 -21 -49 -9l-85 20q-14 4 -16.5 20t5.5 26l301 438l-301 438q-8 10 -6 24z" />
<glyph unicode="&#x205f;" horiz-adv-x="462" />
<glyph unicode="&#x20ac;" horiz-adv-x="1321" d="M151 797l2 117q0 13 9 22t22 9h150q36 254 162 370.5t358 118.5q197 0 315 -19q12 -2 19.5 -13t5.5 -24l-14 -124q-1 -12 -12.5 -19.5t-23.5 -5.5q-96 17 -237 17h-53q-126 -2 -199.5 -72.5t-101.5 -228.5h394q13 0 21.5 -9t8.5 -22v-117q0 -13 -9.5 -22t-22.5 -9h-414 v-117h332q13 0 21.5 -9t8.5 -22v-117q0 -13 -9 -22.5t-22 -9.5h-311q26 -159 100 -227t203 -70q8 0 25 -1t25 -1q116 0 240 17q12 2 23.5 -5.5t12.5 -19.5l14 -123q2 -13 -5 -23.5t-20 -12.5q-147 -22 -315 -19q-236 2 -361.5 115.5t-160.5 369.5h-146q-13 0 -22.5 9.5 t-9.5 22.5l2 117q0 13 9 22t22 9h131v117h-135q-13 0 -22.5 9t-9.5 22z" />
<glyph unicode="&#x2122;" horiz-adv-x="1255" d="M113 1460v89q0 26 29 26h389q24 0 24 -26v-89q0 -11 -6.5 -19.5t-17.5 -8.5h-118v-394q0 -23 -27 -23h-101q-28 0 -28 23v394h-115q-12 0 -20.5 8.5t-8.5 19.5zM602 1038v511q0 26 28 26h120q18 0 27 -14l94 -162l95 162q9 14 30 14h121q25 0 25 -26v-511q0 -23 -25 -23 h-102q-27 0 -27 23v312l-66 -116q-1 -1 -2.5 -4t-2 -3.5t-2 -3t-2.5 -3t-2.5 -2t-3 -1.5t-3.5 -1t-4 -1h-5h-46q-5 0 -8.5 0.5t-5.5 1.5t-4 3t-2.5 3t-3 5t-3.5 6l-64 116v-312q0 -23 -29 -23h-99q-28 0 -28 23z" />
<glyph unicode="&#xe000;" horiz-adv-x="1118" d="M0 0v1119h1119v-1119h-1119z" />
</font>
</defs>
</svg>
